<svg xmlns="http://www.w3.org/2000/svg" viewBox="0 0 64 64"><g data-name="Layer 12"><circle cx="29" cy="32" r="27" fill="#fcc63f"/><path fill="#e4af2e" d="M35,5a27.251,27.251,0,0,0-3,.17,27,27,0,0,1,0,53.66A27,27,0,1,0,35,5Z"/><circle cx="29" cy="32" r="21" fill="#ffd956"/><path fill="#ce9926" d="M51.446 17h6q-.693-1.035-1.478-2h-6Q50.753 15.965 51.446 17zM59.657 21H53.664c.291.653.553 1.321.793 2h6Q60.1 21.98 59.657 21zM61.53 27H55.536c.123.658.218 1.326.292 2h6C61.756 28.325 61.654 27.659 61.53 27zM61.975 33h-6q-.036 1.01-.148 2h6C61.9 34.34 61.95 33.673 61.975 33zM60.794 40H54.788c-.211.678-.443 1.346-.7 2h6C60.341 41.344 60.584 40.68 60.794 40zM58.091 46H52.085q-.627 1.032-1.342 2h6C57.222 47.354 57.673 46.688 58.091 46zM53.138 52H47.127a27.116 27.116 0 0 1-2.481 2h6A27.167 27.167 0 0 0 53.138 52zM47.127 12h6.011a27.167 27.167 0 0 0-2.495-2h-6A27.116 27.116 0 0 1 47.127 12z"/><path fill="#e4af2e" d="M29 21a5.006 5.006 0 0 1 5 5 1 1 0 0 0 2 0 7.006 7.006 0 0 0-6-6.92V17a1 1 0 0 0-2 0v2.08A7.006 7.006 0 0 0 22 26v1a5.487 5.487 0 0 0 3.385 5.077l6.461 2.692A3.492 3.492 0 0 1 34 38a5 5 0 0 1-10 0 1 1 0 0 0-2 0 7.006 7.006 0 0 0 6 6.92V47a1 1 0 0 0 2 0V44.92A7.006 7.006 0 0 0 36 38a5.487 5.487 0 0 0-3.385-5.077l-6.461-2.692A3.492 3.492 0 0 1 24 27V26A5.006 5.006 0 0 1 29 21zM15 29H13a1 1 0 0 0 0 2h2a1 1 0 0 0 0-2zM15 33H13a1 1 0 0 0 0 2h2a1 1 0 0 0 0-2zM43 31h2a1 1 0 0 0 0-2H43a1 1 0 0 0 0 2zM45 33H43a1 1 0 0 0 0 2h2a1 1 0 0 0 0-2z"/><path fill="#ffe89a" d="M29,54a22,22,0,1,1,6.886-42.9A1,1,0,0,1,35.26,13a20.02,20.02,0,1,0,5.482,2.809,1,1,0,0,1,1.176-1.618A22,22,0,0,1,29,54Z"/></g></svg>