<svg height="452pt" viewBox="-46 0 452 452.002" width="452pt" xmlns="http://www.w3.org/2000/svg"><path d="m64.820312 350.667969c-1.945312 23.128906-26.050781 26.777343-26.050781 26.777343 20.695313.976563 25.851563 28.117188 25.851563 28.117188.441406-19.351562 26.640625-28.402344 26.640625-28.402344-19.625-1.175781-26.441407-26.492187-26.441407-26.492187zm0 0" fill="#d7e057"/><path d="m91.441406 374.164062c-17.207031-1.027343-23.664062-24.046874-23.722656-24.28125-.382812-1.40625-1.71875-2.335937-3.167969-2.203124-1.449219.132812-2.59375 1.285156-2.71875 2.734374-1.71875 20.429688-22.625 23.929688-23.507812 24.0625-1.527344.234376-2.628907 1.582032-2.546875 3.125.078125 1.539063 1.3125 2.769532 2.855468 2.839844 18.054688.851563 22.996094 25.4375 23.042969 25.6875.273438 1.421875 1.519531 2.433594 2.945313 2.433594.085937 0 .167968-.003906.253906-.011719 1.527344-.125 2.710938-1.386719 2.75-2.917969.386719-17.019531 24.382812-25.554687 24.625-25.640624 1.347656-.464844 2.183594-1.828126 1.988281-3.242188-.199219-1.417969-1.367187-2.5-2.796875-2.585938zm-27.128906 20.695313c-2.710938-6.261719-7.417969-13.816406-15.171875-17.753906 5.859375-2.808594 12.816406-7.828125 16.402344-16.546875 3.101562 6.144531 8.398437 13.761718 16.667969 17.449218-6.015626 3.277344-13.847657 8.804688-17.898438 16.851563zm0 0" fill="#3a312a"/><path d="m21.421875 384.628906c-1.375 16.355469-18.421875 18.941406-18.421875 18.941406 14.636719.6875 18.28125 19.886719 18.28125 19.886719.3125-13.6875 18.847656-20.089843 18.847656-20.089843-13.882812-.828126-18.707031-18.738282-18.707031-18.738282zm0 0" fill="#d7e057"/><path d="m40.308594 400.375c-11.535156-.691406-15.945313-16.371094-15.988282-16.53125-.382812-1.402344-1.710937-2.316406-3.164062-2.203125-1.453125.128906-2.597656 1.285156-2.722656 2.734375-1.15625 13.742188-15.289063 16.132812-15.882813 16.226562-1.527343.234376-2.6249998 1.582032-2.54687475 3.121094.08203125 1.542969 1.31640575 2.769532 2.85546875 2.84375 12.070313.566406 15.449219 17.289063 15.476563 17.453125.269531 1.425781 1.519531 2.441407 2.945312 2.441407.082031 0 .167969-.003907.25-.011719 1.53125-.125 2.71875-1.386719 2.753906-2.921875.261719-11.417969 16.664063-17.265625 16.824219-17.324219 1.355469-.46875 2.191406-1.824219 1.992187-3.242187-.195312-1.417969-1.367187-2.503907-2.792968-2.585938zm-19.171875 13.585938c-1.847657-3.769532-4.679688-7.894532-8.894531-10.558594 3.710937-2.082032 7.394531-5.257813 9.742187-9.832032 2.113281 3.746094 5.308594 7.910157 9.882813 10.449219-3.699219 2.199219-7.976563 5.476563-10.730469 9.941407zm0 0" fill="#3a312a"/><path d="m21.421875 331.3125c-1.375 16.359375-18.421875 18.941406-18.421875 18.941406 14.636719.691406 18.28125 19.886719 18.28125 19.886719.3125-13.6875 18.847656-20.089844 18.847656-20.089844-13.882812-.828125-18.707031-18.738281-18.707031-18.738281zm0 0" fill="#d7e057"/><path d="m40.308594 347.058594c-11.535156-.691406-15.945313-16.371094-15.988282-16.53125-.382812-1.402344-1.703124-2.335938-3.164062-2.203125-1.453125.128906-2.597656 1.285156-2.722656 2.734375-1.15625 13.742187-15.289063 16.132812-15.882813 16.226562-1.527343.234375-2.6249998 1.582032-2.54687475 3.121094.08203125 1.542969 1.31640575 2.773438 2.85546875 2.84375 12.070313.566406 15.449219 17.289062 15.480469 17.453125.269531 1.425781 1.515625 2.441406 2.941406 2.441406.085938 0 .167969-.003906.25-.011719 1.53125-.125 2.71875-1.386718 2.753906-2.921874.261719-11.417969 16.664063-17.265626 16.824219-17.324219 1.355469-.464844 2.191406-1.824219 1.992187-3.242188-.195312-1.417969-1.367187-2.503906-2.792968-2.585937zm-19.171875 13.589844c-1.847657-3.773438-4.679688-7.894532-8.894531-10.558594 3.710937-2.082032 7.394531-5.261719 9.742187-9.832032 2.113281 3.746094 5.308594 7.90625 9.878906 10.445313-3.695312 2.199219-7.972656 5.480469-10.726562 9.945313zm0 0" fill="#3a312a"/><path d="m93.332031 3 10.234375 128.304688 2.242188 28.070312 12.035156 150.882812c3.054688 38.253907 34.988281 67.742188 73.367188 67.742188h68.539062c38.375 0 70.308594-29.488281 73.359375-67.742188l24.519531-307.257812zm0 0" fill="#f16c7a"/><path d="m359.832031.964844c-.570312-.617188-1.367187-.964844-2.203125-.964844h-264.296875c-.835937 0-1.636719.351562-2.203125.964844-.570312.613281-.855468 1.4375-.789062 2.273437l10.238281 128.304688c.132813 1.648437 1.570313 2.890625 3.230469 2.75 1.652344-.132813 2.882812-1.578125 2.75-3.226563l-9.976563-125.066406h257.796875l-24.257812 304.019531c-2.90625 36.4375-33.820313 64.980469-70.371094 64.980469h-68.542969c-36.550781 0-67.464843-28.542969-70.371093-64.980469l-12.035157-150.882812c-.132812-1.652344-1.585937-2.894531-3.230469-2.753907-1.652343.132813-2.882812 1.578126-2.75 3.230469l12.035157 150.878907c3.15625 39.539062 36.695312 70.503906 76.355469 70.503906h68.539062c39.660156 0 73.199219-30.964844 76.351562-70.503906l24.515626-307.257813c.066406-.832031-.21875-1.65625-.785157-2.269531zm0 0" fill="#3a312a"/><path d="m93.332031 3 2.636719 32.949219h259.023438l2.636718-32.949219zm0 0" fill="#8ac6dd"/><path d="m359.832031.964844c-.570312-.617188-1.367187-.964844-2.203125-.964844h-264.296875c-.835937 0-1.636719.351562-2.203125.964844-.570312.613281-.855468 1.4375-.789062 2.273437l2.636718 32.949219c.125 1.558594 1.425782 2.761719 2.992188 2.761719h259.023438c1.5625 0 2.863281-1.203125 2.988281-2.761719l2.636719-32.949219c.066406-.835937-.21875-1.660156-.785157-2.273437zm-7.609375 31.984375h-253.484375l-2.15625-26.949219h257.792969zm0 0" fill="#3a312a"/><path d="m295.816406 378h-140.675781c-8.304687 0-15.035156 6.730469-15.035156 15.035156v40.929688c0 8.304687 6.730469 15.035156 15.035156 15.035156h140.679687c8.304688 0 15.035157-6.730469 15.035157-15.035156v-40.929688c0-8.304687-6.734375-15.035156-15.039063-15.035156zm0 0" fill="#87796f"/><path d="m295.816406 375h-140.675781c-9.945313 0-18.035156 8.09375-18.035156 18.039062v40.925782c0 9.945312 8.089843 18.039062 18.035156 18.039062h34.078125c1.65625 0 3-1.347656 3-3 0-1.65625-1.34375-3-3-3h-34.078125c-6.636719 0-12.035156-5.402344-12.035156-12.039062v-40.925782c0-6.636718 5.398437-12.039062 12.035156-12.039062h140.679687c6.636719 0 12.035157 5.398438 12.035157 12.039062v40.925782c0 6.636718-5.398438 12.039062-12.035157 12.039062h-79.410156c-1.65625 0-3 1.34375-3 3 0 1.652344 1.34375 3 3 3h79.410156c9.945313 0 18.035157-8.09375 18.035157-18.039062v-40.925782c0-9.945312-8.09375-18.039062-18.039063-18.039062zm0 0" fill="#3a312a"/><path d="m279.769531 190.535156c0 29.984375-24.304687 54.289063-54.289062 54.289063s-54.292969-24.304688-54.292969-54.289063 24.308594-54.292968 54.292969-54.292968 54.289062 24.308593 54.289062 54.292968zm0 0" fill="#d7e057"/><g fill="#3a312a"><path d="m225.480469 133.242188c-31.589844 0-57.292969 25.703124-57.292969 57.292968 0 31.59375 25.699219 57.292969 57.292969 57.292969 31.589843 0 57.289062-25.699219 57.289062-57.292969 0-31.589844-25.699219-57.292968-57.289062-57.292968zm0 108.582031c-28.285157 0-51.292969-23.007813-51.292969-51.289063 0-28.285156 23.007812-51.292968 51.292969-51.292968 28.28125 0 51.289062 23.011718 51.289062 51.292968 0 28.285156-23.007812 51.289063-51.289062 51.289063zm0 0"/><path d="m225.480469 106c-2.125 0-3.847657 1.722656-3.847657 3.847656v7.816406c0 2.125 1.71875 3.847657 3.847657 3.847657 2.125 0 3.847656-1.722657 3.847656-3.847657v-7.816406c0-2.125-1.726563-3.847656-3.847656-3.847656zm0 0"/><path d="m225.480469 259.558594c-2.125 0-3.847657 1.722656-3.847657 3.847656v7.816406c0 2.125 1.71875 3.847656 3.847657 3.847656 2.125 0 3.847656-1.722656 3.847656-3.847656v-7.816406c0-2.125-1.726563-3.847656-3.847656-3.847656zm0 0"/><path d="m285.253906 130.761719c-1.5-1.503907-3.9375-1.503907-5.441406 0l-5.527344 5.527343c-1.5 1.5-1.5 3.9375 0 5.4375 1.503906 1.503907 3.941406 1.503907 5.445313 0l5.523437-5.523437c1.503906-1.503906 1.503906-3.941406 0-5.441406zm0 0"/><path d="m176.671875 239.34375c-1.5-1.503906-3.9375-1.503906-5.441406 0l-5.523438 5.523438c-1.503906 1.503906-1.503906 3.9375 0 5.441406 1.5 1.5 3.9375 1.5 5.441407 0l5.527343-5.527344c1.5-1.5 1.5-3.9375-.003906-5.4375zm0 0"/><path d="m306.167969 186.6875h-7.816407c-2.125 0-3.847656 1.722656-3.847656 3.847656s1.722656 3.847656 3.847656 3.847656h7.816407c2.125 0 3.847656-1.722656 3.847656-3.847656-.003906-2.125-1.722656-3.847656-3.847656-3.847656zm0 0"/><path d="m152.609375 186.6875h-7.816406c-2.125 0-3.847657 1.722656-3.847657 3.847656s1.722657 3.847656 3.847657 3.847656h7.816406c2.125 0 3.847656-1.722656 3.847656-3.847656s-1.722656-3.847656-3.847656-3.847656zm0 0"/><path d="m285.253906 244.867188-5.527344-5.523438c-1.5-1.503906-3.9375-1.503906-5.441406 0-1.503906 1.5-1.503906 3.9375 0 5.441406l5.527344 5.523438c1.503906 1.503906 3.9375 1.503906 5.441406 0 1.503906-1.5 1.503906-3.9375 0-5.441406zm0 0"/><path d="m176.671875 136.289062-5.527344-5.527343c-1.5-1.503907-3.9375-1.503907-5.441406 0-1.503906 1.5-1.503906 3.9375 0 5.441406l5.527344 5.523437c1.5 1.503907 3.9375 1.503907 5.441406 0 1.503906-1.5 1.503906-3.9375 0-5.4375zm0 0"/></g><path d="m321.738281 38.960938-11.980469 150.199218c.179688.417969.261719.898438.261719 1.378906 0 .699219-.179687 1.359376-.519531 1.921876l-9.382812 117.558593c-2.898438 36.441407-33.816407 64.980469-70.359376 64.980469h30c36.542969 0 67.460938-28.539062 70.359376-64.980469l21.621093-271.058593zm0 0" fill="#ce4e61"/><path d="m324.378906 6-2.160156 26.960938h30l2.160156-26.960938zm0 0" fill="#6ca8bf"/><path d="m295.820312 381h-30c6.640626 0 12.039063 5.398438 12.039063 12.039062v40.921876c0 6.640624-5.398437 12.039062-12.039063 12.039062h30c6.640626 0 12.039063-5.398438 12.039063-12.039062v-40.921876c0-6.640624-5.398437-12.039062-12.039063-12.039062zm0 0" fill="#695b51"/></svg>