<svg xmlns="http://www.w3.org/2000/svg" viewBox="0 0 48 30" enable-background="new 0 0 48 30"><path fill="#fff" d="M46.181 30h-44.362c-1.005 0-1.819-.814-1.819-1.819v-26.362c0-1.005.814-1.819 1.819-1.819h44.363c1.004 0 1.818.814 1.818 1.819v26.362c0 1.005-.814 1.819-1.819 1.819z"/><path fill="#E1E8ED" d="M46.181 1c.452 0 .819.367.819.819v26.362c0 .452-.367.819-.819.819h-44.362c-.452 0-.819-.367-.819-.819v-26.362c0-.452.367-.819.819-.819h44.362m0-1h-44.362c-1.005 0-1.819.814-1.819 1.819v26.362c0 1.005.814 1.819 1.819 1.819h44.362c1.005 0 1.819-.814 1.819-1.819v-26.362c0-1.005-.814-1.819-1.819-1.819z"/><path fill="#231F20" d="M7.519 11.387h-1.613v5.634h1.605c.853 0 1.469-.201 2.01-.65.643-.532 1.023-1.334 1.023-2.163 0-1.663-1.242-2.821-3.025-2.821zm1.284 4.232c-.345.312-.794.448-1.504.448h-.295v-3.726h.295c.71 0 1.141.127 1.504.456.38.338.609.863.609 1.403s-.229 1.081-.609 1.419zM11.05 11.387h1.099v5.634h-1.099zM14.836 13.549c-.659-.244-.853-.405-.853-.709 0-.355.345-.625.819-.625.329 0 .6.135.886.456l.575-.753c-.473-.413-1.038-.625-1.656-.625-.997 0-1.757.692-1.757 1.614 0 .776.354 1.174 1.386 1.545.43.152.649.253.76.321.22.143.329.346.329.583 0 .456-.363.795-.853.795-.524 0-.946-.262-1.199-.751l-.71.684c.506.743 1.114 1.073 1.951 1.073 1.142 0 1.943-.759 1.943-1.85-.001-.896-.371-1.301-1.621-1.758zM16.803 14.207c0 1.656 1.3 2.94 2.974 2.94.473 0 .878-.093 1.378-.328v-1.294c-.439.44-.828.617-1.327.617-1.107 0-1.892-.802-1.892-1.943 0-1.082.81-1.935 1.841-1.935.524 0 .921.187 1.378.634v-1.293c-.482-.245-.879-.346-1.352-.346-1.665 0-3 1.31-3 2.948zM29.868 15.171l-1.502-3.784h-1.201l2.391 5.778h.592l2.433-5.778h-1.191zM33.078 17.021h3.117v-.954h-2.019v-1.521h1.945v-.954h-1.945v-1.251h2.019v-.954h-3.117zM40.546 13.05c0-1.055-.727-1.663-1.994-1.663h-1.63v5.634h1.098v-2.263h.143l1.521 2.263h1.352l-1.774-2.374c.829-.168 1.284-.734 1.284-1.597zm-2.204.93h-.321v-1.706h.338c.684 0 1.056.287 1.056.835 0 .566-.372.871-1.073.871z"/><circle fill="#EF7622" cx="24.499" cy="14.207" r="2.996"/><path fill="#EF7622" d="M46.181 29c.452 0 .819-.367.819-.819v-10.64c-1.149.781-12.206 8.018-31.593 11.459h30.774z"/></svg>