<svg xmlns="http://www.w3.org/2000/svg" viewBox="0 0 48 30" enable-background="new 0 0 48 30"><path fill="#2478BC" d="M46.181 30h-44.362c-1.005 0-1.819-.814-1.819-1.819v-26.362c0-1.005.814-1.819 1.819-1.819h44.363c1.004 0 1.818.814 1.818 1.819v26.362c0 1.005-.814 1.819-1.819 1.819z"/><path fill="#fff" d="M34.252 14.104l-.711-1.11v1.11h-3.298l-.389-.879h-1.062l-.378.879h-1.68c-.42 0-1.148-.063-1.717-.434v.434h-4.161l-.009-1.432-.446-.002v1.434h-8.316v-.435l-.005.01-.199.425h-1.863l-.2-.424-.004-.01v.434h-3.299l-.384-.879h-1.07l-.388.879h-2.738l2.439-5.37h2.484l.444.976v-.976h2.874l.794 1.624.73-1.624h9.244c.584 0 1.071.022 1.54.261v-.261h2.534v.459c.446-.306 1.034-.459 1.79-.459h3.791l.437.962v-.962h2.707l.573.896v-.896h2.538v5.37h-2.602zm-20.398-4.657h-1.653l-1.202 2.675-1.308-2.675h-1.632v3.733l-1.701-3.733h-1.485l-1.79 3.943h1.086l.388-.879h2.082l.384.879h2.033v-3.09l1.454 3.091h.878l1.45-3.088.004 3.088h1.013v-3.944zm4.097 3.128h-2.34v-.787h2.284v-.808h-2.284v-.71h2.34v-.823h-3.328v3.943h3.328v-.815zm4.203-2.939c-.323-.176-.699-.189-1.21-.189h-2.3v3.943h1v-1.434h1.073c.36 0 .583.03.729.169.182.19.158.531.158.768l.004.497h1.008v-.775c0-.352-.025-.527-.166-.723-.089-.115-.276-.254-.495-.332.26-.098.704-.422.704-1.051.001-.439-.188-.697-.505-.873zm2.107-.189h-1.02v3.943h1.02v-3.943zm11.835 0h-1.024v2.746l-1.757-2.746h-1.522v3.73l-1.693-3.73h-1.498l-1.409 3.101h-.449c-.263 0-.543-.047-.697-.203-.186-.199-.275-.504-.275-.926 0-.413.117-.727.287-.893.198-.182.404-.234.769-.234h.948v-.845h-.968c-.689 0-1.195.145-1.518.46-.43.422-.539.957-.539 1.542 0 .717.183 1.17.534 1.505.349.335.964.436 1.45.436h1.17l.378-.879h2.077l.389.879h2.036v-2.959l1.895 2.959h1.417v-3.943zm-9.026 1.559h-.242l-.222.016-.002.001c-.025.039-.076.17-.076.397 0 .225.033.346.058.405l.107.01.377-.829zm2.256-.889l.692 1.572h-1.38l.688-1.572zm-8.467 1.027h-1.215v-.876h1.231c.174 0 .356.007.474.071.13.058.21.18.21.349 0 .173-.076.311-.206.375-.138.079-.3.081-.494.081zm-15.266-1.027l.684 1.572h-1.365l.681-1.572zM43.318 20.819h-2.632v-.212c-.325.138-.715.212-1.163.212h-8.033v-1.438l-.438-.003v1.44h-2.452v-1.606c-.345.173-.803.283-1.415.283h-.477v1.323h-2.959l-.878-.956-.913.956h-4.914v-5.371h4.98l.877.948.907-.948h3.432c.585 0 1.026.105 1.36.269v-.269h2.984c.509 0 1.004.021 1.474.25v-.25h4.722v.281c.263-.175.624-.281 1.123-.281h2.688v.231c.299-.145.666-.231 1.107-.231h2.55v2.27c.227.306.335.675.335 1.143 0 1.227-.846 1.959-2.265 1.959zm-16.077-4.658h-3.11l-1.238 1.293-1.197-1.293h-3.914v3.944h3.855l1.245-1.305 1.198 1.305h1.891v-1.323h1.214c.851 0 1.695-.226 1.695-1.322.001-1.092-.867-1.299-1.639-1.299zm5.515.186c-.32-.165-.678-.186-1.171-.186h-2.247v3.944h.978v-1.44h1.04c.355 0 .572.034.714.175.181.183.157.535.157.772v.493h.977v-.782c-.004-.348-.024-.527-.161-.72-.083-.115-.26-.254-.477-.331.256-.099.69-.42.69-1.049 0-.45-.193-.696-.5-.876zm4.288 2.94l-2.279-.004v-.784h2.224v-.805h-2.224v-.717h2.279v-.816h-3.248v3.944h3.248v-.818zm1.635-2.215c.098-.065.213-.071.39-.071h1.785v-.839h-1.951c-1.02 0-1.391.602-1.391 1.174 0 1.248 1.14 1.191 2.05 1.221.17 0 .272.028.347.088.067.055.119.146.119.261 0 .107-.048.196-.115.257-.082.074-.213.098-.398.098h-1.888v.845h1.895c.981 0 1.529-.396 1.529-1.244 0-.406-.101-.646-.291-.835-.221-.216-.583-.305-1.111-.317l-.524-.014c-.166 0-.276-.01-.379-.045-.122-.044-.213-.145-.213-.294 0-.126.04-.221.146-.285zm3.795 0c.098-.065.213-.071.39-.071h1.785v-.839h-1.951c-1.02 0-1.391.602-1.391 1.174 0 1.248 1.14 1.191 2.05 1.221.17 0 .272.028.347.088.067.055.119.146.119.261 0 .107-.048.196-.115.257-.082.074-.213.098-.398.098h-1.888v.845h1.895c.981 0 1.529-.396 1.529-1.244 0-.406-.101-.646-.291-.835-.22-.216-.583-.305-1.111-.317l-.524-.014c-.166 0-.276-.01-.379-.045-.123-.044-.213-.145-.213-.294 0-.126.04-.221.146-.285zm-10.976.791h-1.182v-.886h1.198c.173 0 .347.004.464.071.126.064.201.186.201.355 0 .169-.075.305-.201.379-.13.074-.291.081-.48.081zm-4.269.118h-1.258v-1.004h1.269c.352 0 .595.139.595.484 0 .341-.232.52-.606.52zm-2.227-1.396v3.162l-1.494-1.607 1.494-1.555zm-6.251 2.698v-.784h2.137v-.805h-2.137v-.717h2.44l1.064 1.149-1.111 1.157h-2.393z"/></svg>