<?xml version="1.0" encoding="utf-8"?>
<!-- Generator: Adobe Illustrator 18.0.0, SVG Export Plug-In . SVG Version: 6.00 Build 0)  -->
<!DOCTYPE svg PUBLIC "-//W3C//DTD SVG 1.1//EN" "http://www.w3.org/Graphics/SVG/1.1/DTD/svg11.dtd">
<svg version="1.1" id="Layer_1" xmlns="http://www.w3.org/2000/svg" xmlns:xlink="http://www.w3.org/1999/xlink" x="0px" y="0px"
	 viewBox="0 204 612 382.5" enable-background="new 0 204 612 382.5" xml:space="preserve">
<path fill="#FFFFFF" d="M590.4,586.5H24.8c-12.8,0-23.2-10.4-23.2-23.2V227.1C1.6,214.3,12,204,24.8,204h565.6
	c12.8,0,23.2,10.4,23.2,23.2v336.1C613.6,576.1,603.3,586.5,590.4,586.5z"/>
<path fill="#E1E8ED" d="M590.4,216.7c5.8,0,10.4,4.7,10.4,10.4v336.1c0,5.8-4.7,10.4-10.4,10.4H24.8c-5.8,0-10.4-4.7-10.4-10.4
	V227.1c0-5.8,4.7-10.4,10.4-10.4H590.4 M590.4,204H24.8C12,204,1.6,214.3,1.6,227.1v336.1c0,12.8,10.4,23.2,23.2,23.2h565.6
	c12.8,0,23.2-10.4,23.2-23.2V227.1C613.6,214.3,603.3,204,590.4,204z"/>
<g>
	<path fill="#828282" d="M126.2,347.9c-1.2,8.5-4.5,15-10,19.7c-5.4,4.7-12.5,7-21.1,7c-10.3,0-18.6-3.4-24.9-10.1
		c-6.3-6.7-9.5-15.6-9.5-26.6c0-11.4,3.2-20.5,9.6-27.3c6.4-6.8,15-10.2,25.8-10.2c8.5,0,15.5,2.2,20.9,6.7s8.5,10.6,9.3,18.4h-16.9
		c-0.8-3.4-2.4-5.9-4.7-7.6c-2.3-1.7-5.4-2.6-9.1-2.6c-5,0-9,2-12,6c-2.9,4-4.4,9.4-4.4,16.4c0,6.9,1.4,12.2,4.2,16.1
		c2.8,3.8,6.7,5.7,11.7,5.7c4.1,0,7.3-1,9.7-3c2.4-2,4-4.8,4.6-8.6H126.2z"/>
	<path fill="#828282" d="M155.1,302.1h19.7l24.9,70.5h-19.4l-4.3-12.9h-23.5l-4,12.9h-18.7L155.1,302.1z M156.8,345.1h15.4
		l-7.8-24.3L156.8,345.1z"/>
	<path fill="#828282" d="M203.2,349.2h17.3c0.1,4,1.3,7,3.5,9.1c2.2,2,5.5,3,9.8,3c3.7,0,6.5-0.6,8.5-1.8c2-1.2,3-2.9,3-5.1
		c0-1.1-0.2-2.1-0.7-3c-0.5-0.9-1.1-1.5-2-2c-1.3-0.7-4.5-1.8-9.6-3.3c-5.1-1.5-9.4-3-12.9-4.4c-5.1-2-8.9-4.7-11.6-8
		s-3.9-7.2-3.9-11.6c0-6.7,2.5-12.1,7.6-16.1c5.1-4,11.9-6,20.6-6c8.5,0,15.2,2.1,20.2,6.3c5,4.2,7.5,9.8,7.5,16.9h-17
		c-0.4-3.3-1.5-5.7-3.5-7.3c-1.9-1.6-4.7-2.3-8.4-2.3c-2.9,0-5.3,0.6-7.1,1.8s-2.7,2.7-2.7,4.6c0,3.1,4.3,6.1,13,8.9
		c1.6,0.5,2.8,0.9,3.6,1.1l0.7,0.2c8.9,2.9,14.5,5.2,16.7,7c2.3,1.9,4,4,5.2,6.5c1.2,2.5,1.8,5.3,1.8,8.4c0,7-2.7,12.5-8.1,16.4
		c-5.4,3.9-12.9,5.9-22.6,5.9c-9.2,0-16.1-2.1-20.9-6.3C206.5,364.1,203.8,357.7,203.2,349.2z"/>
	<path fill="#828282" d="M273.5,372.6v-70.5h18.1v25h24.7v-25h18.1v70.5h-18.1v-29.7h-24.7v29.7H273.5z"/>
	<path fill="#828282" d="M374.4,337.4c0-11.5,3.2-20.5,9.5-27.2c6.3-6.7,14.9-10,25.8-10c10.9,0,19.5,3.3,25.9,10
		c6.4,6.7,9.6,15.7,9.6,27.1c0,11.4-3.2,20.5-9.6,27.1c-6.4,6.7-15,10-25.9,10c-10.8,0-19.4-3.3-25.8-10
		C377.5,357.9,374.4,348.9,374.4,337.4z M392.7,337.4c0,7.2,1.5,12.7,4.4,16.5c2.9,3.8,7.1,5.7,12.6,5.7c5.5,0,9.7-1.9,12.7-5.7
		c3-3.8,4.4-9.3,4.4-16.5c0-7.1-1.5-12.6-4.4-16.5c-3-3.8-7.2-5.8-12.7-5.8c-5.5,0-9.6,1.9-12.6,5.7
		C394.2,324.7,392.7,330.3,392.7,337.4z"/>
	<path fill="#828282" d="M455.9,372.6v-70.5h19.5l13.3,23.2c2.2,3.8,4.2,7.5,6.2,11.2c1.9,3.7,3.8,7.4,5.5,11
		c-0.3-5.3-0.4-10.3-0.6-15c-0.1-4.7-0.2-8.8-0.2-12.3v-18h17.4v70.5h-19.5l-13.8-23.8c-1.6-2.8-3.4-6-5.3-9.5s-3.9-7.3-6.1-11.3
		c0.4,4.6,0.6,8.9,0.8,12.8c0.2,4,0.2,7.5,0.2,10.5v21.2H455.9z"/>
	<path fill="#828282" d="M63.7,490.2v-70.5h30.1c10.4,0,18.4,3,24,9.1c5.6,6.1,8.4,14.8,8.4,26.2c0,11.8-2.9,20.6-8.6,26.4
		c-5.8,5.8-14.4,8.8-26.1,8.8H63.7z M81.8,475.4h9.8c5.6,0,9.7-1.6,12.3-4.9c2.6-3.3,3.9-8.4,3.9-15.5c0-7.1-1.3-12.2-3.9-15.5
		c-2.6-3.3-6.7-4.9-12.3-4.9h-9.8V475.4z"/>
	<path fill="#828282" d="M137.1,490.2v-70.5h53.5v14.5h-35.5v12.4h32.4v14.1h-32.4v15.1h36.7v14.4H137.1z"/>
	<path fill="#828282" d="M203,490.2v-70.5H221v55.2h34.1v15.3H203z"/>
	<path fill="#828282" d="M263,490.2v-70.5h18v70.5H263z"/>
	<path fill="#828282" d="M311.4,490.2l-24.2-70.5h19.1l9.9,36.2c0.2,0.6,0.4,1.6,0.8,3c1.2,4.3,2.1,8,2.8,10.9
		c0.4-1.4,0.8-3.1,1.3-5.1c0.5-1.9,1.2-4.5,2.2-7.7l10.4-37.4h19l-24.4,70.5H311.4z"/>
	<path fill="#828282" d="M358.5,490.2v-70.5h53.5v14.5h-35.5v12.4H409v14.1h-32.4v15.1h36.7v14.4H358.5z"/>
	<path fill="#828282" d="M423.9,490.2v-70.5h33.7c8.9,0,15.5,1.6,19.7,4.8c4.2,3.2,6.3,8.1,6.3,14.8c0,4-0.9,7.3-2.7,10.2
		c-1.8,2.8-4.6,5.2-8.4,7.1c3.1,1.2,5.3,2.8,6.6,4.8c1.3,2,2,5.6,2.2,10.7c0.1,1.4,0.2,3.4,0.3,5.8c0.2,5.7,1.2,9,2.9,9.9v2.4h-18.9
		c-0.9-2.5-1.5-5.9-1.6-10.2c-0.1-4.3-0.3-7.1-0.4-8.2c-0.3-2.7-1.2-4.8-2.8-6c-1.6-1.3-3.9-1.9-7-1.9h-12.1v26.4H423.9z
		 M441.8,449.9h13.4c3.6,0,6.3-0.7,8-2c1.7-1.3,2.6-3.5,2.6-6.4c0-2.6-0.8-4.5-2.5-5.8c-1.7-1.3-4.2-1.9-7.6-1.9h-13.9V449.9z"/>
	<path fill="#828282" d="M512.4,490.2v-26.6L488,419.7h20.2l13,28.4l12.9-28.4h20.4l-24.6,43.9v26.6H512.4z"/>
</g>
</svg>
