<svg height="452pt" viewBox="0 0 452 452.78515" width="452pt" xmlns="http://www.w3.org/2000/svg"><path d="m65.214844 22.351562c-1.945313 23.128907-26.046875 26.78125-26.046875 26.78125 20.695312.972657 25.851562 28.117188 25.851562 28.117188.441407-19.351562 26.640625-28.402344 26.640625-28.402344-19.628906-1.175781-26.445312-26.496094-26.445312-26.496094zm0 0" fill="#d7e057"/><path d="m91.839844 45.851562c-17.210938-1.027343-23.664063-24.046874-23.730469-24.28125-.382813-1.40625-1.730469-2.332031-3.164063-2.203124-1.449218.132812-2.597656 1.285156-2.71875 2.734374-1.71875 20.429688-22.625 23.925782-23.507812 24.0625-1.527344.230469-2.625 1.582032-2.546875 3.125.078125 1.539063 1.3125 2.765626 2.851563 2.839844 18.058593.851563 23 25.4375 23.046874 25.6875.273438 1.421875 1.519532 2.433594 2.945313 2.433594.082031 0 .167969-.003906.25-.011719 1.527344-.128906 2.714844-1.386719 2.75-2.917969.390625-17.015624 24.386719-25.554687 24.625-25.636718 1.351563-.46875 2.1875-1.832032 1.988281-3.246094-.195312-1.417969-1.363281-2.5-2.789062-2.585938zm-27.132813 20.691407c-2.710937-6.261719-7.417969-13.8125-15.175781-17.75 5.863281-2.8125 12.820312-7.828125 16.40625-16.546875 3.101562 6.140625 8.398438 13.757812 16.667969 17.441406-6.015625 3.28125-13.84375 8.8125-17.898438 16.855469zm0 0" fill="#3a312a"/><path d="m21.820312 56.316406c-1.378906 16.355469-18.425781 18.941406-18.425781 18.941406 14.636719.6875 18.285157 19.886719 18.285157 19.886719.3125-13.6875 18.84375-20.089843 18.84375-20.089843-13.882813-.832032-18.703126-18.738282-18.703126-18.738282zm0 0" fill="#d7e057"/><path d="m40.699219 72.058594c-11.53125-.6875-15.941407-16.371094-15.984375-16.527344-.378906-1.402344-1.703125-2.339844-3.164063-2.203125-1.453125.128906-2.597656 1.28125-2.71875 2.734375-1.160156 13.742188-15.296875 16.132812-15.886719 16.226562-1.527343.230469-2.625 1.582032-2.550781 3.121094.082031 1.539063 1.316407 2.769532 2.855469 2.84375 12.074219.566406 15.449219 17.289063 15.480469 17.453125.269531 1.421875 1.519531 2.4375 2.945312 2.4375.082031 0 .167969 0 .25-.007812 1.53125-.128907 2.714844-1.390625 2.753907-2.921875.257812-11.417969 16.664062-17.269532 16.824218-17.324219 1.351563-.46875 2.1875-1.828125 1.992188-3.246094-.195313-1.417969-1.367188-2.5-2.796875-2.585937zm-19.167969 13.589844c-1.847656-3.769532-4.679688-7.894532-8.894531-10.558594 3.710937-2.082032 7.394531-5.261719 9.742187-9.835938 2.117188 3.75 5.308594 7.910156 9.882813 10.449219-3.699219 2.203125-7.976563 5.480469-10.730469 9.945313zm0 0" fill="#3a312a"/><path d="m21.820312 3c-1.378906 16.355469-18.425781 18.941406-18.425781 18.941406 14.636719.6875 18.285157 19.886719 18.285157 19.886719.3125-13.6875 18.84375-20.089844 18.84375-20.089844-13.882813-.832031-18.703126-18.738281-18.703126-18.738281zm0 0" fill="#d7e057"/><path d="m40.703125 18.742188c-11.53125-.6875-15.945313-16.371094-15.988281-16.527344-.378906-1.40625-1.703125-2.328125-3.164063-2.2031252-1.453125.1289062-2.597656 1.2851562-2.71875 2.7343752-1.160156 13.742187-15.296875 16.136718-15.886719 16.230468-1.527343.230469-2.625 1.578126-2.550781 3.121094.082031 1.539063 1.316407 2.765625 2.859375 2.839844 12.070313.570312 15.445313 17.289062 15.476563 17.453125.269531 1.425781 1.519531 2.441406 2.945312 2.441406.082031 0 .167969-.003906.25-.011719 1.53125-.128906 2.714844-1.386718 2.753907-2.921874.257812-11.417969 16.660156-17.265626 16.824218-17.324219 1.351563-.46875 2.1875-1.824219 1.992188-3.242188-.195313-1.417969-1.367188-2.503906-2.792969-2.589843zm-19.171875 13.589843c-1.847656-3.769531-4.679688-7.894531-8.894531-10.558593 3.710937-2.082032 7.394531-5.261719 9.742187-9.835938 2.117188 3.75 5.308594 7.910156 9.882813 10.449219-3.699219 2.203125-7.976563 5.484375-10.730469 9.945312zm0 0" fill="#3a312a"/><path d="m124.566406 253.460938c-56.171875 0-101.707031 45.535156-101.707031 101.707031 0 .257812.015625.515625.019531.773437h203.375c.003906-.257812.019532-.515625.019532-.773437 0-56.171875-45.535157-101.707031-101.707032-101.707031zm0 0" fill="#d7e057"/><path d="m124.566406 250.460938c-57.734375 0-104.707031 46.972656-104.707031 104.707031l.015625.785156c.007812 1.652344 1.347656 2.988281 3 2.988281h203.378906c1.648438 0 2.988282-1.332031 3-2.976562l.019532-.796875c0-57.734375-46.972657-104.707031-104.707032-104.707031zm-98.683594 102.480468c1.1875-53.402344 45-96.480468 98.683594-96.480468s97.496094 43.078124 98.683594 96.480468zm0 0" fill="#3a312a"/><path d="m124.566406 282.574219c-40.214844 0-72.816406 32.601562-72.816406 72.816406 0 .183594.011719.367187.015625.550781h145.601563c.003906-.183594.015624-.367187.015624-.550781 0-40.21875-32.601562-72.816406-72.816406-72.816406zm0 0" fill="#d7e057"/><path d="m124.566406 279.574219c-41.804687 0-75.816406 34.007812-75.816406 75.816406l.015625.566406c.007813 1.652344 1.347656 2.984375 3 2.984375h145.601563c1.644531 0 2.988281-1.496094 3.003906-3.140625l.011718-.410156c0-41.808594-34.011718-75.816406-75.816406-75.816406zm-69.773437 73.367187c1.296875-37.367187 32.097656-67.371094 69.773437-67.371094 37.617188 0 68.382813 29.910157 69.761719 67.371094zm0 0" fill="#3a312a"/><path d="m124.566406 311.101562c-24.578125 0-44.5 19.925782-44.5 44.503907 0 .113281.007813.222656.007813.335937h88.984375c0-.113281.011718-.222656.011718-.335937 0-24.578125-19.925781-44.503907-44.503906-44.503907zm0 0" fill="#d7e057"/><path d="m124.566406 308.101562c-26.191406 0-47.5 21.3125-47.5 47.503907l.007813.363281c.011719 1.648438 1.351562 2.972656 3 2.972656h88.984375c1.617187 0 2.945312-1.433594 3.003906-3.042968.003906-.039063.007812-.253907.007812-.292969 0-26.195313-21.3125-47.503907-47.503906-47.503907zm-41.417968 44.839844c1.375-21.648437 19.429687-38.839844 41.417968-38.839844 21.96875 0 40.007813 17.160157 41.410156 38.839844zm0 0" fill="#3a312a"/><path d="m327.984375 253.460938c-56.175781 0-101.710937 45.535156-101.710937 101.707031 0 .257812.019531.515625.019531.773437h203.378906c.003906-.257812.019531-.515625.019531-.773437 0-56.171875-45.535156-101.707031-101.707031-101.707031zm0 0" fill="#d7e057"/><path d="m327.984375 250.460938c-57.738281 0-104.710937 46.972656-104.710937 104.707031l.019531.796875c.011719 1.644531 1.351562 2.976562 3 2.976562h203.378906c1.648437 0 2.988281-1.332031 3-2.976562l.019531-.796875c0-57.734375-46.972656-104.707031-104.707031-104.707031zm-98.6875 102.480468c1.191406-53.402344 45-96.480468 98.6875-96.480468 53.683594 0 97.492187 43.078124 98.683594 96.480468zm0 0" fill="#3a312a"/><path d="m327.984375 282.574219c-40.21875 0-72.816406 32.601562-72.816406 72.816406 0 .183594.011719.367187.011719.550781h145.605468c0-.183594.011719-.367187.011719-.550781 0-40.21875-32.597656-72.816406-72.8125-72.816406zm0 0" fill="#d7e057"/><path d="m327.984375 279.574219c-41.808594 0-75.816406 34.007812-75.816406 75.816406l.011719.582031c.019531 1.644532 1.355468 2.96875 3 2.96875h145.605468c1.648438 0 2.996094-1.507812 3.003906-3.160156l.007813-.394531c0-41.804688-34.007813-75.8125-75.8125-75.8125zm-69.777344 73.367187c1.296875-37.367187 32.097657-67.371094 69.777344-67.371094 37.617187 0 68.382813 29.914063 69.761719 67.371094zm0 0" fill="#3a312a"/><path d="m327.984375 311.101562c-24.578125 0-44.503906 19.925782-44.503906 44.503907 0 .113281.007812.222656.007812.335937h88.988281c0-.113281.007813-.222656.007813-.335937 0-24.578125-19.925781-44.503907-44.5-44.503907zm0 0" fill="#d7e057"/><path d="m327.984375 308.101562c-26.195313 0-47.503906 21.3125-47.503906 47.503907l.007812.363281c.015625 1.648438 1.355469 2.972656 3 2.972656h88.988281c1.617188 0 2.945313-1.449218 3-3.0625 0-.035156.007813-.238281.007813-.273437 0-26.195313-21.308594-47.503907-47.5-47.503907zm-41.417969 44.839844c1.375-21.648437 19.425782-38.839844 41.417969-38.839844 21.96875 0 40.007813 17.160157 41.410156 38.839844zm0 0" fill="#3a312a"/><path d="m316.574219 68.867188c2 6.078124 3.058593 12.578124 3.058593 19.320312 0 6.757812-1.058593 13.257812-3.058593 19.339844h132.359375v-38.660156zm0 0" fill="#87796f"/><path d="m448.933594 65.867188h-47.167969c-1.660156 0-3 1.34375-3 3s1.339844 3 3 3h44.167969v32.660156h-125.355469c1.367187-5.285156 2.054687-10.761719 2.054687-16.339844 0-5.566406-.6875-11.039062-2.054687-16.320312h51.207031c1.65625 0 3-1.34375 3-3s-1.34375-3-3-3h-55.210937c-.960938 0-1.867188.460937-2.429688 1.242187s-.71875 1.78125-.421875 2.695313c1.933594 5.871093 2.910156 12.054687 2.910156 18.382812 0 6.339844-.976562 12.53125-2.910156 18.402344-.296875.914062-.140625 1.917968.421875 2.699218.5625.777344 1.46875 1.238282 2.429688 1.238282h132.359375c1.660156 0 3-1.339844 3-3v-38.65625c0-1.660156-1.339844-3.003906-3-3.003906zm0 0" fill="#3a312a"/><path d="m257.113281 25.679688h-110.933593c-7.324219 0-13.261719 5.9375-13.261719 13.261718 0 7.324219 5.9375 13.261719 13.261719 13.261719h73.59375c6.277343 0 11.367187 5.089844 11.367187 11.367187 0 6.277344-5.089844 11.363282-11.367187 11.363282h-73.59375c-7.324219 0-13.261719 5.941406-13.261719 13.261718 0 7.324219 5.9375 13.265626 13.261719 13.265626h73.59375c6.277343 0 11.367187 5.085937 11.367187 11.363281 0 6.277343-5.089844 11.367187-11.367187 11.367187h-73.59375c-7.324219 0-13.261719 5.9375-13.261719 13.261719s5.9375 13.261719 13.261719 13.261719h110.933593c34.527344 0 62.515625-27.988282 62.515625-62.515625 0-34.53125-27.988281-62.519531-62.515625-62.519531zm0 0" fill="#87796f"/><path d="m257.113281 22.679688h-110.933593c-8.964844 0-16.261719 7.292968-16.261719 16.257812 0 8.96875 7.292969 16.261719 16.261719 16.261719h73.59375c4.613281 0 8.367187 3.753906 8.367187 8.367187 0 4.613282-3.753906 8.367188-8.367187 8.367188h-73.59375c-8.964844 0-16.261719 7.292968-16.261719 16.261718s7.292969 16.261719 16.261719 16.261719h73.59375c4.613281 0 8.367187 3.753907 8.367187 8.367188s-3.753906 8.363281-8.367187 8.363281h-73.59375c-8.964844 0-16.261719 7.296875-16.261719 16.261719 0 8.96875 7.292969 16.261719 16.261719 16.261719h110.933593c36.128907 0 65.519531-29.390626 65.519531-65.515626s-29.390624-65.515624-65.519531-65.515624zm0 125.035156h-110.933593c-5.65625 0-10.261719-4.605469-10.261719-10.261719s4.605469-10.261719 10.261719-10.261719h73.59375c7.921874 0 14.367187-6.445312 14.367187-14.367187s-6.445313-14.363281-14.367187-14.363281h-73.59375c-5.65625 0-10.261719-4.605469-10.261719-10.265626 0-5.65625 4.605469-10.261718 10.261719-10.261718h73.59375c7.921874 0 14.367187-6.441406 14.367187-14.363282 0-7.921874-6.445313-14.367187-14.367187-14.367187h-73.59375c-5.65625 0-10.261719-4.605469-10.261719-10.261719 0-5.660156 4.605469-10.261718 10.261719-10.261718h110.933593c32.820313 0 59.519531 26.703124 59.519531 59.515624 0 32.816407-26.699218 59.519532-59.519531 59.519532zm0 0" fill="#3a312a"/><path d="m3.394531 355.941406c0 38.875 31.511719 70.386719 70.382813 70.386719h304.996094c38.871093 0 70.382812-31.511719 70.382812-70.386719zm0 0" fill="#fce8cb"/><path d="m449.15625 352.941406h-445.761719c-1.65625 0-3 1.34375-3 3 0 40.464844 32.921875 73.382813 73.382813 73.382813h9.0625c1.660156 0 3-1.339844 3-3 0-1.65625-1.339844-3-3-3h-9.0625c-36.152344 0-65.742188-28.613281-67.316406-64.382813h439.628906c-1.574219 35.773438-31.167969 64.382813-67.316406 64.382813h-266.066407c-1.65625 0-3 1.34375-3 3 0 1.660156 1.34375 3 3 3h266.066407c40.464843 0 73.382812-32.917969 73.382812-73.382813 0-1.65625-1.34375-3-3-3zm0 0" fill="#3a312a"/><path d="m131.886719 426.324219h188.777343v23.464843h-188.777343zm0 0" fill="#fce8cb"/><path d="m320.660156 423.324219h-188.773437c-1.65625 0-3 1.34375-3 3v23.460937c0 1.65625 1.34375 3 3 3h188.777343c1.65625 0 3-1.34375 3-3v-23.460937c-.003906-1.65625-1.34375-3-3.003906-3zm-3 23.464843h-182.773437v-17.460937h182.777343v17.460937zm0 0" fill="#3a312a"/><path d="m226.273438 253.460938c-56.171876 0-101.707032 45.535156-101.707032 101.707031 0 .257812.019532.515625.019532.773437h203.378906c0-.257812.019531-.515625.019531-.773437 0-56.171875-45.539063-101.707031-101.710937-101.707031zm0 0" fill="#d7e057"/><path d="m226.273438 250.460938c-57.734376 0-104.707032 46.972656-104.707032 104.707031l.019532.796875c.011718 1.644531 1.351562 2.976562 3 2.976562h203.375c1.648437 0 2.988281-1.332031 3-2.976562l.023437-.796875c0-57.734375-46.972656-104.707031-104.710937-104.707031zm-98.683594 102.480468c1.1875-53.402344 45-96.480468 98.683594-96.480468 53.683593 0 97.496093 43.078124 98.683593 96.480468zm0 0" fill="#3a312a"/><path d="m226.273438 282.574219c-40.214844 0-72.816407 32.601562-72.816407 72.816406 0 .183594.011719.367187.015625.550781h145.605469c0-.183594.011719-.367187.011719-.550781 0-40.21875-32.597656-72.816406-72.816406-72.816406zm0 0" fill="#d7e057"/><path d="m226.273438 279.574219c-41.804688 0-75.816407 34.007812-75.816407 75.816406l.015625.566406c.007813 1.652344 1.351563 2.984375 3 2.984375h145.605469c1.648437 0 2.996094-1.507812 3.003906-3.160156l.007813-.394531c0-41.804688-34.007813-75.8125-75.816406-75.8125zm-69.773438 73.367187c1.296875-37.367187 32.097656-67.371094 69.773438-67.371094 37.621093 0 68.386718 29.914063 69.765624 67.371094zm0 0" fill="#3a312a"/><path d="m226.273438 311.101562c-24.578126 0-44.5 19.925782-44.5 44.503907 0 .113281.007812.222656.007812.335937h88.988281c0-.113281.007813-.222656.007813-.335937 0-24.578125-19.925782-44.503907-44.503906-44.503907zm0 0" fill="#d7e057"/><path d="m226.273438 308.101562c-26.191407 0-47.5 21.3125-47.5 47.503907l.007812.363281c.011719 1.648438 1.351562 2.972656 3 2.972656h88.984375c1.613281 0 2.941406-1.433594 3.003906-3.042968 0-.039063.003907-.253907.003907-.292969.003906-26.195313-21.308594-47.503907-47.5-47.503907zm-41.417969 44.839844c1.378906-21.648437 19.429687-38.839844 41.417969-38.839844 21.972656 0 40.007812 17.160157 41.414062 38.839844zm0 0" fill="#3a312a"/><path d="m175.8125 4.023438c-5.957031 0-10.785156 4.828124-10.785156 10.789062v225.308594c0 5.957031 4.828125 10.785156 10.785156 10.785156s10.785156-4.828125 10.785156-10.785156v-225.308594c0-5.957031-4.828125-10.789062-10.785156-10.789062zm0 0" fill="#d7e057"/><path d="m175.8125 1.023438c-7.601562 0-13.785156 6.1875-13.785156 13.789062v225.308594c0 7.601562 6.183594 13.785156 13.785156 13.785156s13.785156-6.183594 13.785156-13.785156v-225.308594c0-7.601562-6.183594-13.789062-13.785156-13.789062zm7.785156 239.097656c0 4.292968-3.492187 7.785156-7.785156 7.785156s-7.785156-3.492188-7.785156-7.785156v-225.308594c0-4.292969 3.492187-7.789062 7.785156-7.789062s7.785156 3.492187 7.785156 7.789062zm0 0" fill="#3a312a"/><path d="m197.382812 4.023438c-5.957031 0-10.785156 4.828124-10.785156 10.789062v150.644531c0 5.953125 4.828125 10.785157 10.785156 10.785157 5.957032 0 10.785157-4.828126 10.785157-10.785157v-150.644531c0-5.957031-4.828125-10.789062-10.785157-10.789062zm0 0" fill="#d7e057"/><path d="m197.382812 1.023438c-7.601562 0-13.785156 6.1875-13.785156 13.789062v150.644531c0 7.601563 6.183594 13.785157 13.785156 13.785157 7.601563 0 13.785157-6.183594 13.785157-13.785157v-150.644531c0-7.601562-6.183594-13.789062-13.785157-13.789062zm7.785157 164.433593c0 4.289063-3.492188 7.785157-7.785157 7.785157-4.292968 0-7.785156-3.492188-7.785156-7.785157v-150.644531c0-4.292969 3.492188-7.789062 7.785156-7.789062 4.292969 0 7.785157 3.492187 7.785157 7.789062zm0 0" fill="#3a312a"/><path d="m218.953125 4.023438c-5.957031 0-10.785156 4.828124-10.785156 10.789062v150.644531c0 5.953125 4.828125 10.785157 10.785156 10.785157s10.785156-4.828126 10.785156-10.785157v-150.644531c0-5.957031-4.828125-10.789062-10.785156-10.789062zm0 0" fill="#d7e057"/><path d="m218.953125 1.023438c-7.601563 0-13.785156 6.1875-13.785156 13.789062v150.644531c0 7.601563 6.183593 13.785157 13.785156 13.785157s13.785156-6.183594 13.785156-13.785157v-150.644531c0-7.601562-6.183593-13.789062-13.785156-13.789062zm7.785156 164.433593c0 4.289063-3.492187 7.785157-7.785156 7.785157s-7.785156-3.492188-7.785156-7.785157v-150.644531c0-4.292969 3.492187-7.789062 7.785156-7.789062s7.785156 3.492187 7.785156 7.789062zm0 0" fill="#3a312a"/><path d="m240.523438 4.023438c-5.957032 0-10.785157 4.828124-10.785157 10.789062v150.644531c0 5.953125 4.828125 10.785157 10.785157 10.785157 5.953124 0 10.785156-4.828126 10.785156-10.785157v-150.644531c0-5.957031-4.828125-10.789062-10.785156-10.789062zm0 0" fill="#d7e057"/><path d="m240.523438 1.023438c-7.601563 0-13.785157 6.1875-13.785157 13.789062v150.644531c0 7.601563 6.183594 13.785157 13.785157 13.785157 7.601562 0 13.785156-6.183594 13.785156-13.785157v-150.644531c0-7.601562-6.183594-13.789062-13.785156-13.789062zm7.785156 164.433593c0 4.289063-3.492188 7.785157-7.785156 7.785157-4.292969 0-7.785157-3.492188-7.785157-7.785157v-150.644531c0-4.292969 3.488281-7.789062 7.785157-7.789062 4.292968 0 7.785156 3.492187 7.785156 7.789062zm0 0" fill="#3a312a"/><path d="m417.195312 358.945312c-1.582031 35.761719-31.160156 64.382813-67.320312 64.382813h28.898438c36.140624 0 65.742187-28.621094 67.320312-64.382813zm0 0" fill="#decaad"/></svg>