<svg height="452pt" viewBox="0 0 452 452.78715" width="452pt" xmlns="http://www.w3.org/2000/svg"><path d="m430.484375 5.105469c-13.898437-4.097657-28.480469 3.863281-32.558594 17.761719-3.480469 11.800781-7.621093 23.421874-12.359375 34.78125l-13.378906 28.359374c-5.242188 9.917969-10.960938 19.597657-17.140625 29 14.160156.058594 26.738281 3.859376 36.796875 11.800782 4.101562 3.238281 7.402344 7.5 9.921875 12.578125 20.160156-31.558594 35.960937-65.878907 46.5-101.71875 4.058594-13.800781-3.878906-28.480469-17.78125-32.5625zm0 0" fill="#fce8cb"/><path d="m448.746094 16.308594c-3.75-6.882813-9.933594-11.882813-17.414063-14.078125-7.488281-2.214844-15.386719-1.371094-22.242187 2.367187-6.855469 3.742188-11.84375 9.925782-14.042969 17.417969-3.40625 11.5625-7.527344 23.160156-12.25 34.472656-.636719 1.53125.085937 3.285157 1.613281 3.925781 1.53125.636719 3.289063-.085937 3.925782-1.613281 4.804687-11.515625 8.996093-23.320312 12.46875-35.089843 1.75-5.957032 5.714843-10.875 11.160156-13.847657 5.445312-2.96875 11.71875-3.636719 17.675781-1.878906 5.941406 1.742187 10.855469 5.714844 13.835937 11.1875 2.972657 5.464844 3.652344 11.730469 1.910157 17.644531-9.921875 33.738282-24.546875 66.257813-43.492188 96.734375-2.320312-3.582031-5.0625-6.628906-8.191406-9.101562-9.140625-7.214844-20.3125-11.320313-33.273437-12.246094 5.128906-8.0625 9.964843-16.382813 14.40625-24.796875.777343-1.46875.214843-3.28125-1.25-4.054688-1.46875-.777343-3.28125-.210937-4.054688 1.25-5.175781 9.800782-10.894531 19.476563-16.992188 28.75-.605468.921876-.660156 2.097657-.136718 3.066407.519531.972656 1.53125 1.578125 2.628906 1.582031 13.890625.0625 25.652344 3.8125 34.953125 11.15625 3.664063 2.894531 6.726563 6.785156 9.089844 11.558594.480469.96875 1.449219 1.605468 2.527343 1.664062.054688.003906.109376.003906.164063.003906 1.019531 0 1.972656-.523437 2.527344-1.386718 20.542969-32.164063 36.308593-66.648438 46.847656-102.488282 2.195313-7.445312 1.34375-15.332031-2.394531-22.199218zm0 0" fill="#3a312a"/><path d="m391.835938 126.808594c-19.632813-15.53125-48.875-15.210938-80.65625-2.144532-27.050782 11.121094-57.117188 12.019532-84.625 2.074219-17.226563-6.226562-35.769532-9.691406-55.105469-9.855469-90.449219-.761718-165.761719 72.105469-167.839844 162.527344-2.152344 93.726563 73.175781 170.378906 166.414063 170.378906 39.75 0 76.230468-13.957031 104.855468-37.207031 11.582032-8.203125 24.25-19.765625 38.390625-35.390625 80.511719-88.953125 119.21875-218.230468 78.566407-250.382812zm0 0" fill="#87796f"/><path d="m410.78125 162.960938c-1.480469-17.753907-7.226562-30.710938-17.082031-38.503907-19.828125-15.6875-49.542969-16.597656-83.660157-2.566406-26.578124 10.925781-55.863281 11.644531-82.464843 2.027344-17.96875-6.496094-36.84375-9.875-56.101563-10.035157-92-.75-168.746094 73.449219-170.863281 165.457032-1.058594 46.050781 16.0625 89.527344 48.207031 122.421875 32.160156 32.902343 75.203125 51.027343 121.203125 51.027343 38.769531 0 76.679688-13.453124 106.59375-37.757812 12.105469-8.574219 24.824219-20.292969 38.878907-35.824219 59.144531-65.34375 100.109374-158.308593 95.289062-216.246093zm-99.738281 212.21875c-13.757813 15.203124-26.152344 26.636718-38.054688 35.074218-29.003906 23.558594-65.574219 36.535156-102.964843 36.535156-44.375 0-85.894532-17.480468-116.910157-49.222656-31.007812-31.726562-47.523437-73.664062-46.503906-118.085937 2.03125-88.296875 75.207031-159.605469 163.4375-159.605469.453125 0 .921875.003906 1.375.007812 18.578125.15625 36.785156 3.410157 54.113281 9.675782 28.007813 10.128906 58.828125 9.375 86.785156-2.121094 32.03125-13.167969 59.601563-12.554688 77.65625 1.722656 8.503907 6.726563 13.492188 18.265625 14.824219 34.296875 4.695313 56.457031-35.609375 147.476563-93.757812 211.722657zm0 0" fill="#3a312a"/><path d="m272.082031 282.082031c-20.300781-32.664062-95.757812-22.480469-128.421875-2.179687-32.667968 20.304687-42.691406 63.242187-22.386718 95.90625 20.300781 32.667968 63.242187 42.691406 95.90625 22.386718 32.664062-20.300781 75.203124-83.445312 54.902343-116.113281zm0 0" fill="#fce8cb"/><path d="m274.628906 280.5c-9.707031-15.617188-31.832031-23.5625-62.238281-22.367188-25.539063 1-53.140625 8.546876-70.316406 19.21875-16.480469 10.242188-27.984375 26.292969-32.390625 45.1875-4.410156 18.890626-1.199219 38.375 9.042968 54.855469 13.742188 22.109375 37.511719 34.277344 61.8125 34.277344 13.082032 0 26.320313-3.527344 38.226563-10.925781 17.175781-10.675782 36.160156-32.082032 48.367187-54.535156 14.539063-26.753907 17.203126-50.09375 7.496094-65.710938zm-12.769531 62.84375c-11.746094 21.609375-29.90625 42.140625-46.265625 52.308594-31.207031 19.394531-72.375 9.785156-91.773438-21.425782-9.398437-15.117187-12.34375-32.988281-8.296874-50.324218 4.046874-17.332032 14.601562-32.054688 29.71875-41.453125 16.359374-10.164063 42.804687-17.355469 67.378906-18.320313 2.019531-.078125 3.964844-.117187 5.851562-.117187 33.625 0 46.386719 12.140625 51.058594 19.65625 4.9375 7.9375 10.5 26.246093-7.671875 59.675781zm0 0" fill="#3a312a"/><path d="m361.234375 170.058594c-21.425781-21.421875-68.714844-8.871094-90.140625 12.554687s-2.261719 36.996094 19.164062 58.421875c21.425782 21.425782 36.996094 40.589844 58.421876 19.164063 21.425781-21.425781 33.980468-68.714844 12.554687-90.140625zm0 0" fill="#fce8cb"/><path d="m363.355469 167.9375c-10.546875-10.546875-27.496094-14.316406-47.730469-10.621094-17.71875 3.238282-35.59375 12.117188-46.652344 23.175782-6.917968 6.914062-10.265625 13.691406-10.246094 20.71875.042969 12.917968 11.503907 24.238281 24.777344 37.347656 1.523438 1.503906 3.070313 3.035156 4.632813 4.59375 1.5625 1.5625 3.09375 3.113281 4.597656 4.636718 13.105469 13.269532 24.429687 24.734376 37.347656 24.773438h.070313c7 0 13.757812-3.351562 20.648437-10.242188 11.058594-11.058593 19.9375-28.933593 23.175781-46.652343 3.695313-20.234375-.074218-37.183594-10.621093-47.730469zm-16.796875 90.140625c-5.726563 5.726563-11.070313 8.535156-16.457032 8.488281-10.425781-.035156-20.933593-10.671875-33.101562-22.992187-1.511719-1.53125-3.050781-3.089844-4.621094-4.660157-1.570312-1.570312-3.128906-3.109374-4.660156-4.621093-12.320312-12.167969-22.960938-22.679688-22.992188-33.101563-.015624-5.347656 2.757813-10.730468 8.488282-16.457031 10.242187-10.242187 26.90625-18.488281 43.488281-21.515625 3.640625-.667969 8.351563-1.269531 13.464844-1.269531 9.71875 0 20.890625 2.175781 28.945312 10.230469 16.164063 16.164062 13.496094 59.847656-12.554687 85.898437zm0 0" fill="#3a312a"/><path d="m240.445312 177.574219c-16.96875-37.191407-84.664062-30-116.664062-14.667969-54.390625 26.058594-103.335938 86-67.640625 156.984375 6.394531 12.714844 18.421875 8.734375 22.003906-5.457031 8.5-33.699219 36.417969-59.628906 67.480469-73.386719l28.9375-9.183594c1.871094-.398437 3.742188-.777343 5.613281-1.117187 13.808594-2.492188 28.210938-1.941406 41.3125-7.625 17.527344-7.605469 27.179688-27.53125 18.957031-45.546875zm0 0" fill="#fce8cb"/><path d="m243.175781 176.328125c-4.996093-10.945313-14.277343-18.945313-27.582031-23.769531-28.527344-10.34375-69.265625-3.785156-93.109375 7.644531-36.714844 17.59375-65.183594 47.269531-76.148437 79.382813-9.105469 26.671874-6.710938 54.144531 7.125 81.65625 3.007812 5.988281 7.507812 9.320312 12.488281 9.320312.414062 0 .828125-.019531 1.242187-.066406 6.34375-.699219 11.652344-6.570313 13.863282-15.328125 7.511718-29.777344 32.105468-56.460938 65.789062-71.375 1.515625-.667969 2.199219-2.445313 1.527344-3.957031-.671875-1.515626-2.445313-2.199219-3.957032-1.527344-35.355468 15.65625-61.214843 43.839844-69.179687 75.394531-1.554687 6.167969-4.96875 10.421875-8.699219 10.828125-2.828125.320312-5.644531-1.871094-7.714844-5.984375-13.082031-26.019531-15.371093-51.933594-6.804687-77.023437 10.457031-30.621094 37.769531-59 73.0625-75.910157 23.066406-11.050781 62.460937-16.847656 88.46875-7.414062 11.738281 4.257812 19.867187 11.195312 24.171875 20.621093 3.324219 7.289063 3.570312 15.425782.691406 22.921876-3.152344 8.210937-9.753906 15-18.113281 18.628906-8.390625 3.640625-17.308594 4.59375-26.746094 5.601562-4.5625.488282-9.277343.992188-13.90625 1.828125-1.90625.339844-3.808593.726563-5.707031 1.132813-1.621094.34375-2.652344 1.9375-2.308594 3.558594.34375 1.621093 1.933594 2.652343 3.5625 2.308593 1.835938-.390625 3.675782-.761719 5.519532-1.097656 4.414062-.796875 9.019531-1.289063 13.476562-1.765625 9.46875-1.011719 19.261719-2.054688 28.496094-6.0625 9.824218-4.265625 17.597656-12.277344 21.324218-21.980469 3.464844-9.011719 3.167969-18.800781-.832031-27.566406zm0 0" fill="#3a312a"/><path d="m443.484375 19.164062c-2.980469-5.457031-7.898437-9.4375-13.839844-11.179687-2.160156-.640625-4.378906-.960937-6.578125-.960937-3.679687 0-7.300781.882812-10.640625 2.621093 4.101563 2.082031 7.460938 5.378907 9.71875 9.519531 2.980469 5.460938 3.640625 11.742188 1.902344 17.660157-8.582031 29.179687-20.703125 57.339843-35.820313 83.820312 1.898438 1.160157 3.738282 2.421875 5.480469 3.800781 3.136719 2.5 5.878907 5.539063 8.179688 9.078126 18.738281-30.160157 33.5-62.738282 43.5-96.699219 1.738281-5.917969 1.058593-12.195313-1.902344-17.660157zm0 0" fill="#decaad"/><path d="m404.804688 163.445312c-1.339844-16.019531-6.320313-27.558593-14.820313-34.277343-1.519531-1.199219-3.117187-2.320313-4.777344-3.320313-6.5-3.960937-13.960937-6.441406-22.261719-7.378906-.019531 0-.019531 0-.019531 0-6.019531-.722656-12.460937-.621094-19.238281.257812 9.539062 1.441407 17.957031 4.921876 24.957031 10.441407 8.5 6.71875 13.480469 18.257812 14.820313 34.277343 4.699218 56.460938-35.597656 147.480469-93.757813 211.742188-13.761719 15.199219-26.140625 26.621094-38.0625 35.058594-26.238281 21.320312-58.660156 33.980468-92.300781 36.179687 3.542969.242188 7.101562.363281 10.683594.363281 37.378906 0 73.957031-12.980468 102.957031-36.542968 11.902344-8.4375 24.300781-19.859375 38.0625-35.058594 58.140625-64.261719 98.457031-155.28125 93.757813-211.742188zm0 0" fill="#695b51"/><path d="m65.214844 22.351562c-1.949219 23.128907-26.050782 26.78125-26.050782 26.78125 20.695313.972657 25.851563 28.117188 25.851563 28.117188.441406-19.351562 26.640625-28.402344 26.640625-28.402344-19.625-1.175781-26.441406-26.496094-26.441406-26.496094zm0 0" fill="#d7e057"/><path d="m91.835938 45.851562c-17.207032-1.027343-23.664063-24.046874-23.726563-24.28125-.382813-1.40625-1.722656-2.339843-3.167969-2.203124-1.449218.132812-2.597656 1.285156-2.71875 2.734374-1.71875 20.429688-22.625 23.925782-23.507812 24.0625-1.523438.230469-2.625 1.582032-2.546875 3.125.082031 1.539063 1.316406 2.765626 2.855469 2.839844 18.054687.851563 23 25.4375 23.046874 25.6875.273438 1.421875 1.515626 2.433594 2.945313 2.433594.082031 0 .167969-.003906.25-.011719 1.527344-.128906 2.714844-1.386719 2.75-2.917969.390625-17.015624 24.382813-25.554687 24.625-25.636718 1.351563-.46875 2.183594-1.832032 1.988281-3.246094-.195312-1.417969-1.363281-2.5-2.792968-2.585938zm-27.132813 20.691407c-2.710937-6.261719-7.417969-13.8125-15.171875-17.75 5.859375-2.8125 12.816406-7.828125 16.402344-16.546875 3.101562 6.140625 8.398437 13.757812 16.667968 17.441406-6.015624 3.28125-13.84375 8.8125-17.898437 16.855469zm0 0" fill="#3a312a"/><path d="m21.816406 56.316406c-1.378906 16.355469-18.425781 18.9375-18.425781 18.9375 14.636719.6875 18.28125 19.890625 18.28125 19.890625.3125-13.691406 18.847656-20.089843 18.847656-20.089843-13.882812-.832032-18.703125-18.738282-18.703125-18.738282zm0 0" fill="#d7e057"/><path d="m40.699219 72.058594c-11.535157-.6875-15.945313-16.371094-15.988281-16.527344-.382813-1.402344-1.707032-2.34375-3.164063-2.203125-1.453125.128906-2.597656 1.28125-2.71875 2.734375-1.160156 13.742188-15.292969 16.132812-15.882813 16.226562-1.527343.230469-2.628906 1.582032-2.546874 3.121094.078124 1.539063 1.3125 2.769532 2.851562 2.84375 12.070312.566406 15.449219 17.289063 15.480469 17.453125.269531 1.421875 1.515625 2.4375 2.945312 2.4375.082031 0 .164063 0 .25-.007812 1.53125-.128907 2.714844-1.390625 2.75-2.921875.261719-11.417969 16.664063-17.269532 16.824219-17.324219 1.355469-.46875 2.191406-1.828125 1.992188-3.246094-.195313-1.417969-1.363282-2.5-2.792969-2.585937zm-19.167969 13.589844c-1.847656-3.769532-4.679688-7.894532-8.894531-10.558594 3.707031-2.082032 7.394531-5.261719 9.742187-9.832032 2.113282 3.746094 5.308594 7.90625 9.878906 10.445313-3.699218 2.203125-7.976562 5.480469-10.726562 9.945313zm0 0" fill="#3a312a"/><path d="m21.816406 3c-1.378906 16.355469-18.425781 18.941406-18.425781 18.941406 14.636719.6875 18.28125 19.886719 18.28125 19.886719.3125-13.6875 18.847656-20.089844 18.847656-20.089844-13.882812-.832031-18.703125-18.738281-18.703125-18.738281zm0 0" fill="#d7e057"/><path d="m40.699219 18.742188c-11.53125-.6875-15.945313-16.371094-15.988281-16.527344-.382813-1.40625-1.707032-2.328125-3.164063-2.2031252-1.453125.1289062-2.597656 1.2851562-2.71875 2.7343752-1.160156 13.742187-15.292969 16.136718-15.882813 16.230468-1.527343.230469-2.628906 1.578126-2.546874 3.121094.078124 1.539063 1.3125 2.765625 2.855468 2.839844 12.070313.570312 15.445313 17.289062 15.476563 17.453125.269531 1.425781 1.519531 2.441406 2.945312 2.441406.082031 0 .167969-.003906.25-.011719 1.53125-.128906 2.71875-1.386718 2.753907-2.921874.261718-11.417969 16.660156-17.265626 16.824218-17.324219 1.351563-.46875 2.1875-1.824219 1.992188-3.242188-.199219-1.417969-1.367188-2.503906-2.796875-2.589843zm-19.167969 13.589843c-1.847656-3.769531-4.679688-7.894531-8.894531-10.558593 3.707031-2.082032 7.394531-5.261719 9.742187-9.832032 2.113282 3.746094 5.308594 7.90625 9.878906 10.449219-3.699218 2.199219-7.976562 5.480469-10.726562 9.941406zm0 0" fill="#3a312a"/></svg>