<svg id="Layer_1" enable-background="new 0 0 256 256" height="512" viewBox="0 0 256 256" width="512" xmlns="http://www.w3.org/2000/svg"><path d="m204.172 219.926c-4.139 10.178-15.741 15.076-25.92 10.939l-108.733-44.206c-10.181-4.138-15.076-15.74-10.938-25.92l42.651-104.918c4.143-10.181 15.745-15.076 25.925-10.938l108.733 44.205c10.176 4.139 15.075 15.742 10.934 25.921z" fill="#e0bb07"/><g fill="#ffdc00"><path d="m235.89 89.088-108.734-44.205c-6.466-2.627-13.495-1.591-18.83 2.109 2.316.069 4.655.477 6.929 1.399l108.733 44.205c10.177 4.138 15.072 15.74 10.938 25.92l-42.656 104.92c-1.507 3.714-4.025 6.698-7.094 8.823 8.059.229 15.782-4.425 18.996-12.333l42.651-104.917c4.142-10.18-.757-21.782-10.933-25.921z"/><path d="m230.893 111.784c-1.174 2.891-4.473 4.282-7.363 3.109-2.895-1.177-4.285-4.472-3.108-7.363 1.178-2.895 4.473-4.286 7.363-3.109 2.891 1.173 4.281 4.472 3.108 7.363z"/><path d="m119.117 66.346c-1.178 2.892-4.473 4.278-7.363 3.104-2.892-1.177-4.281-4.472-3.108-7.363 1.178-2.895 4.472-4.286 7.362-3.109 2.896 1.179 4.286 4.474 3.109 7.368z"/><path d="m192.628 87.096c-.657 1.612-2.499 2.389-4.111 1.732-1.616-.656-2.393-2.498-1.74-4.11.66-1.617 2.502-2.393 4.119-1.737 1.611.656 2.388 2.498 1.732 4.115z"/><path d="m217.305 162.075c-1.037 2.544-3.936 3.769-6.48 2.735-2.546-1.034-3.77-3.936-2.731-6.48 1.033-2.546 3.932-3.77 6.477-2.732 2.543 1.032 3.768 3.936 2.734 6.477z"/><path d="m191.703 201.066c-.894 2.204-3.412 3.263-5.618 2.366-2.203-.893-3.265-3.412-2.37-5.615.896-2.207 3.411-3.268 5.618-2.374 2.206.898 3.264 3.416 2.37 5.623z"/><path d="m187.425 223.812c-.788 1.939-2.996 2.868-4.934 2.079-1.94-.785-2.869-2.992-2.08-4.931.785-1.939 2.992-2.871 4.932-2.083 1.938.789 2.871 2.995 2.082 4.935z"/><path d="m215.942 104.192c-1.466 3.609-5.58 5.347-9.193 3.877-3.606-1.468-5.347-5.583-3.878-9.193s5.584-5.346 9.192-3.881c3.614 1.468 5.346 5.587 3.879 9.197z"/><path d="m100.654 104.635c-.897 2.203-3.412 3.264-5.615 2.366-2.203-.894-3.264-3.412-2.37-5.615.897-2.203 3.412-3.264 5.618-2.366 2.2.893 3.264 3.412 2.367 5.615z"/><path d="m118.095 91.668c-.893 2.195-3.396 3.252-5.595 2.358s-3.256-3.399-2.363-5.595c.895-2.2 3.4-3.256 5.596-2.362 2.199.894 3.256 3.4 2.362 5.599z"/><path d="m74.682 168.521c-.897 2.207-3.415 3.264-5.615 2.37-2.203-.897-3.268-3.412-2.37-5.614.898-2.208 3.412-3.268 5.614-2.37 2.204.892 3.268 3.407 2.371 5.614z"/><path d="m156.966 70.896c-.326.805-.591 1.46-.591 1.46s.265-.654.591-1.46c.331-.812.599-1.468.599-1.468s-.268.656-.599 1.468z"/><path d="m230.396 133.209c-.793 1.946-3.012 2.887-4.958 2.095-1.951-.789-2.883-3.012-2.091-4.959.793-1.947 3.008-2.883 4.958-2.091 1.943.789 2.883 3.008 2.091 4.955z"/><path d="m160.067 72.342c-1.104 2.72-4.203 4.025-6.924 2.921-2.716-1.107-4.025-4.203-2.918-6.92 1.108-2.719 4.2-4.025 6.92-2.922 2.72 1.104 4.025 4.205 2.922 6.921z"/></g><path d="m185.714 234.118c-2.714 0-5.471-.513-8.136-1.596l-108.733-44.206c-11.075-4.502-16.424-17.175-11.922-28.251l42.651-104.918c4.506-11.075 17.18-16.423 28.256-11.921l58.034 23.592c.915.372 1.355 1.416.983 2.331-.372.914-1.412 1.357-2.331.983l-58.033-23.592c-9.247-3.758-19.831.707-23.594 9.955l-42.652 104.917c-3.759 9.248.707 19.83 9.955 23.589l108.733 44.206c9.247 3.759 19.828-.707 23.589-9.955l42.651-104.917c1.822-4.48 1.791-9.401-.089-13.856s-5.382-7.912-9.861-9.734c-.915-.373-1.355-1.416-.983-2.331.372-.916 1.416-1.357 2.331-.983 5.365 2.182 9.56 6.322 11.811 11.657 2.251 5.336 2.289 11.23.106 16.596l-42.651 104.916c-3.42 8.41-11.551 13.518-20.115 13.518z" fill="#24202b"/><path d="m173.39 65.466c-.445 0-.892-.166-1.238-.498-26.527-25.457-59.593-40.547-98.278-44.85-.981-.109-1.689-.994-1.58-1.976.109-.981.978-1.694 1.977-1.58 39.485 4.392 73.251 19.81 100.358 45.824.713.685.736 1.817.053 2.53-.353.366-.823.55-1.292.55z" fill="#24202b"/><path d="m69.518 188.448c-.224 0-.452-.042-.673-.132-29.974-12.186-60.338-3.516-60.642-3.426-.945.277-1.941-.265-2.221-1.213-.278-.948.265-1.942 1.213-2.221 1.288-.377 31.88-9.106 62.997 3.545.915.372 1.355 1.416.983 2.331-.281.695-.95 1.116-1.657 1.116z" fill="#24202b"/><path d="m77.947 113.076c-.295 0-.594-.073-.869-.227-18.472-10.302-39.586-5.006-39.798-4.952-.959.248-1.933-.327-2.18-1.283-.248-.957.326-1.933 1.283-2.181.919-.238 22.727-5.703 42.437 5.291.863.481 1.173 1.571.691 2.434-.326.587-.936.918-1.564.918z" fill="#24202b"/><path d="m40.042 67.529c-.654 0-1.256-.357-1.57-.931l-4.671-8.542-8.543-4.671c-.574-.314-.931-.916-.931-1.57s.357-1.256.931-1.57l8.543-4.671 4.671-8.544c.314-.574.916-.931 1.57-.931s1.256.357 1.57.931l4.671 8.544 8.543 4.671c.574.314.931.916.931 1.57s-.357 1.256-.931 1.57l-8.543 4.671-4.671 8.542c-.314.574-.916.931-1.57.931z" fill="#b8dff4"/><path d="m40.042 37.888 4.923 9.004 9.003 4.923-9.003 4.922-4.923 9.002-4.923-9.002-9.003-4.922 9.003-4.923zm0-3.578c-1.308 0-2.512.714-3.139 1.862l-4.42 8.084-8.083 4.42c-1.148.628-1.861 1.831-1.861 3.139s.714 2.512 1.862 3.139l8.083 4.419 4.42 8.083c.628 1.148 1.831 1.861 3.139 1.861s2.512-.714 3.139-1.861l4.42-8.083 8.083-4.419c1.148-.628 1.862-1.831 1.862-3.139s-.714-2.512-1.861-3.139l-8.083-4.42-4.42-8.084c-.629-1.148-1.833-1.862-3.141-1.862z" fill="#24202b"/><path d="m38.609 153.319c-.654 0-1.255-.356-1.569-.93l-3.553-6.492-6.487-3.55c-.573-.314-.93-.916-.93-1.569s.357-1.256.93-1.569l6.487-3.549 3.553-6.492c.314-.574.916-.93 1.569-.93.654 0 1.256.357 1.569.931l3.548 6.491 6.491 3.549c.574.314.931.916.931 1.57s-.357 1.256-.931 1.57l-6.491 3.549-3.548 6.491c-.313.572-.915.929-1.569.93z" fill="#b8dff4"/><path d="m38.608 130.026 3.8 6.951 6.951 3.8-6.951 3.801-3.8 6.951-3.805-6.951-6.946-3.801 6.946-3.8zm0-3.578c-1.307 0-2.511.713-3.139 1.86l-3.302 6.033-6.028 3.298c-1.147.628-1.861 1.831-1.861 3.139s.713 2.511 1.86 3.139l6.028 3.298 3.302 6.033c.628 1.147 1.831 1.86 3.139 1.86h.001c1.308 0 2.511-.714 3.139-1.862l3.297-6.031 6.031-3.298c1.148-.628 1.862-1.831 1.861-3.14s-.714-2.512-1.862-3.139l-6.031-3.297-3.297-6.031c-.625-1.148-1.829-1.861-3.138-1.862.001 0 .001 0 0 0z" fill="#24202b"/><path d="m216.466 53.604c-.654 0-1.256-.357-1.569-.931l-4.673-8.543-8.542-4.672c-.574-.314-.931-.916-.931-1.57s.356-1.256.931-1.57l8.542-4.671 4.673-8.543c.313-.574.915-.931 1.569-.931.654 0 1.256.357 1.569.931l4.672 8.543 8.543 4.671c.573.314.931.916.931 1.57s-.356 1.256-.931 1.57l-8.543 4.672-4.672 8.543c-.313.574-.915.931-1.569.931z" fill="#b8dff4"/><path d="m216.466 23.962 4.923 9.003 9.003 4.923-9.003 4.923-4.923 9.003-4.924-9.003-9.002-4.923 9.002-4.923zm0-3.578c-1.308 0-2.512.714-3.139 1.861l-4.421 8.083-8.082 4.42c-1.148.628-1.861 1.831-1.861 3.139s.714 2.512 1.861 3.139l8.082 4.42 4.421 8.084c.628 1.148 1.831 1.861 3.139 1.861 1.308 0 2.512-.714 3.139-1.861l4.42-8.084 8.083-4.42c1.148-.628 1.861-1.831 1.861-3.139s-.714-2.512-1.861-3.139l-8.083-4.42-4.42-8.083c-.627-1.147-1.831-1.861-3.139-1.861z" fill="#24202b"/><path d="m182.168 134.74c-3.567-1.434-7.619.3-9.053 3.87l7.171-17.884c1.438-3.571-.298-7.624-3.869-9.057-3.566-1.43-7.619.303-9.053 3.873l2.895-7.224c1.434-3.566-.3-7.619-3.87-9.049-3.571-1.438-7.624.299-9.058 3.865l-3.407 8.507c1.434-3.572-.3-7.625-3.874-9.054-3.567-1.43-7.619.299-9.049 3.871l-15.111 37.682-.646 1.608c-4.096 6.71-9.018 9.05-12.491 9.803-4.225-5.599-10.655-10.964-20.458-13.156 0 0-9.574.307-3.621 9.03 0 0 12.162 11.544 6.612 25.393 0 0 .929 21.273 26.317 31.449l14.774 5.926c10.199 4.091 21.778-.862 25.865-11.062l2.425-6.042 12.924-32.219 8.451-21.075c1.434-3.573-.3-7.622-3.874-9.055z" fill="#f19d69"/><path d="m163.424 106.651c3.575 1.434 5.308 5.486 3.874 9.054l-2.895 7.219c1.43-3.566 5.482-5.304 9.053-3.871 3.571 1.431 5.305 5.487 3.871 9.058l2.959-7.386c1.438-3.571-.298-7.624-3.869-9.057-3.566-1.43-7.619.303-9.053 3.873l2.895-7.224c1.434-3.566-.3-7.619-3.87-9.049-3.571-1.438-7.624.299-9.058 3.865l-2.96 7.387c1.434-3.569 5.486-5.303 9.053-3.869z" fill="#f9b28a"/><path d="m147.089 109.973c3.571 1.43 5.308 5.483 3.874 9.053l2.961-7.386c1.434-3.572-.3-7.625-3.874-9.054-3.567-1.43-7.619.299-9.049 3.871l-2.965 7.386c1.434-3.57 5.487-5.299 9.053-3.87z" fill="#f9b28a"/><path d="m87.8 149.994c.866-.186 1.53-.213 1.53-.213 9.804 2.191 16.238 7.557 20.457 13.152 3.475-.75 8.401-3.089 12.497-9.799l.644-1.609 2.316-5.777c-4.096 6.71-9.018 9.05-12.491 9.803-4.225-5.599-10.655-10.964-20.458-13.156 0-.001-8.485.271-4.495 7.599z" fill="#f9b28a"/><path d="m182.168 134.74c-3.567-1.434-7.619.3-9.053 3.87l-2.961 7.387c1.43-3.57 5.485-5.304 9.052-3.871 3.575 1.435 5.306 5.483 3.875 9.054l2.961-7.386c1.434-3.572-.3-7.621-3.874-9.054z" fill="#f9b28a"/><path d="m143.786 217.423c-2.731 0-5.464-.523-8.075-1.571l-14.773-5.925c-26.159-10.485-27.398-32.116-27.438-33.032-.012-.254.032-.508.127-.744 5.039-12.576-6.071-23.322-6.184-23.43-.092-.087-.175-.184-.246-.289-2.252-3.3-2.827-6.09-1.708-8.293 1.664-3.277 6.233-3.517 6.749-3.533.15-.004.3.009.448.042 8.438 1.887 15.415 6.216 20.758 12.876 2.968-.898 6.839-3.144 10.197-8.583l15.7-39.149c.868-2.17 2.53-3.872 4.68-4.79 2.147-.917 4.525-.945 6.695-.075 1.751.701 3.197 1.917 4.175 3.49l.779-1.947c.873-2.171 2.536-3.871 4.686-4.79 2.151-.919 4.532-.943 6.701-.07 2.169.869 3.87 2.532 4.789 4.682.919 2.149.944 4.526.073 6.694l-.271.673c1.744-.45 3.639-.371 5.435.349 2.174.873 3.877 2.539 4.795 4.691.917 2.149.94 4.527.067 6.695l-4.542 11.328c1.794-.463 3.681-.346 5.432.358 2.172.872 3.874 2.534 4.793 4.682s.945 4.528.074 6.699l-23.8 59.336c-2.154 5.376-6.272 9.591-11.597 11.869-2.739 1.17-5.627 1.757-8.519 1.757zm-46.687-40.33c.249 2.812 2.696 20.505 25.171 29.513l14.773 5.926c4.489 1.803 9.41 1.745 13.855-.156s7.884-5.421 9.683-9.911l23.801-59.337c.515-1.284.5-2.689-.044-3.958-.543-1.27-1.551-2.253-2.836-2.769h-.001c-1.281-.516-2.687-.5-3.956.043-1.271.543-2.254 1.549-2.77 2.833-.367.917-1.409 1.364-2.326.994-.917-.368-1.362-1.409-.994-2.326s0 0 0-.001l7.171-17.883c.517-1.283.503-2.688-.039-3.957-.543-1.273-1.55-2.258-2.836-2.774-2.645-1.059-5.663.231-6.727 2.88-.367.917-1.406 1.363-2.326.994-.917-.368-1.362-1.409-.994-2.326v-.001c.001-.002.002-.004.002-.006l2.893-7.217c.515-1.282.5-2.686-.043-3.955-.543-1.271-1.549-2.253-2.832-2.768-1.285-.517-2.69-.503-3.963.041-1.271.543-2.254 1.548-2.77 2.831l-3.402 8.494c-.001.004-.003.008-.005.013-.368.917-1.404 1.362-2.326.994-.917-.368-1.362-1.409-.995-2.326l.008-.018c.508-1.279.49-2.679-.051-3.944-.543-1.27-1.55-2.252-2.834-2.766-1.284-.515-2.69-.499-3.959.043-1.27.542-2.251 1.548-2.765 2.831l-15.758 39.292c-.037.092-.081.181-.133.266-4.455 7.299-9.876 9.803-13.64 10.619-.68.147-1.387-.114-1.807-.671-4.856-6.436-11.308-10.618-19.179-12.433-1.029.086-2.95.535-3.471 1.569-.454.903.035 2.499 1.378 4.507 1.487 1.469 12.35 12.877 7.047 26.82z" fill="#24202b"/><path d="m136.606 156.618c-.222 0-.446-.042-.665-.129-.917-.368-1.362-1.409-.994-2.326l17.765-44.308c.368-.917 1.409-1.361 2.326-.995.917.368 1.362 1.409.994 2.326l-17.765 44.308c-.281.699-.951 1.124-1.661 1.124z" fill="#24202b"/><path d="m149.504 161.867c-.222 0-.446-.042-.665-.129-.917-.368-1.362-1.409-.994-2.327l18.077-45.084c.368-.917 1.407-1.361 2.326-.995.917.368 1.362 1.409.994 2.327l-18.077 45.084c-.28.699-.951 1.124-1.661 1.124z" fill="#24202b"/><path d="m160.951 170.725c-.222 0-.446-.042-.665-.129-.917-.368-1.362-1.409-.994-2.326l12.431-30.986c.368-.917 1.407-1.363 2.326-.994.917.368 1.362 1.409.994 2.326l-12.431 30.986c-.28.699-.951 1.123-1.661 1.123z" fill="#24202b"/><path d="m110.935 199.616h21.674v40.79h-21.674z" fill="#14a2ff" transform="matrix(.372 -.928 .928 .372 -127.755 251.149)"/><path d="m98.466 208.05h21.674v13.922h-21.674z" fill="#098dd6" transform="matrix(.372 -.928 .928 .372 -130.94 236.463)"/><path d="m136.668 239.45c-.226 0-.452-.043-.666-.128l-37.857-15.182c-.917-.368-1.362-1.409-.994-2.326l8.062-20.12c.176-.44.521-.793.957-.979s.928-.192 1.369-.016l37.861 15.184c.917.368 1.362 1.41.994 2.327l-8.066 20.116c-.177.44-.521.792-.957.979-.224.096-.464.145-.703.145zm-35.531-17.965 34.536 13.849 6.735-16.795-34.54-13.852z" fill="#24202b"/></svg>