<svg height="464pt" viewBox="0 -6 464.25728 464" width="464pt" xmlns="http://www.w3.org/2000/svg"><path d="m70.84375 22.484375c-1.945312 23.128906-26.050781 26.777344-26.050781 26.777344 20.695312.972656 25.851562 28.117187 25.851562 28.117187.441407-19.351562 26.640625-28.402344 26.640625-28.402344-19.625-1.175781-26.441406-26.492187-26.441406-26.492187zm0 0" fill="#d7e057"/><path d="m97.464844 45.980469c-17.207032-1.027344-23.664063-24.046875-23.726563-24.28125-.382812-1.40625-1.722656-2.324219-3.164062-2.203125-1.453125.132812-2.597657 1.285156-2.71875 2.734375-1.722657 20.429687-22.625 23.925781-23.507813 24.0625-1.527344.230469-2.628906 1.582031-2.546875 3.125.078125 1.539062 1.3125 2.765625 2.855469 2.839843 18.054688.851563 22.996094 25.4375 23.046875 25.6875.273437 1.421876 1.515625 2.433594 2.945313 2.433594.082031 0 .167968-.003906.25-.011718 1.527343-.128907 2.714843-1.386719 2.75-2.917969.390624-17.015625 24.382812-25.554688 24.625-25.636719 1.351562-.46875 2.183593-1.828125 1.988281-3.246094-.199219-1.417968-1.367188-2.5-2.796875-2.585937zm-27.128906 20.695312c-2.714844-6.261719-7.417969-13.816406-15.175782-17.753906 5.863282-2.808594 12.820313-7.828125 16.40625-16.546875 3.101563 6.140625 8.394532 13.757812 16.667969 17.441406-6.015625 3.28125-13.847656 8.816406-17.898437 16.859375zm0 0" fill="#3a312a"/><path d="m27.445312 56.445312c-1.375 16.355469-18.425781 18.941407-18.425781 18.941407 14.636719.6875 18.285157 19.886719 18.285157 19.886719.3125-13.6875 18.84375-20.089844 18.84375-20.089844-13.878907-.832032-18.703126-18.738282-18.703126-18.738282zm0 0" fill="#d7e057"/><path d="m46.328125 72.1875c-11.53125-.6875-15.945313-16.371094-15.984375-16.527344-.382812-1.402344-1.707031-2.328125-3.164062-2.203125-1.453126.128907-2.597657 1.28125-2.722657 2.734375-1.15625 13.742188-15.292969 16.132813-15.882812 16.226563-1.527344.230469-2.628907 1.582031-2.546875 3.121093.078125 1.542969 1.3125 2.769532 2.851562 2.84375 12.074219.566407 15.449219 17.289063 15.480469 17.453126.269531 1.421874 1.519531 2.4375 2.945313 2.4375.082031 0 .164062 0 .25-.007813 1.53125-.128906 2.714843-1.390625 2.75-2.921875.261718-11.417969 16.664062-17.269531 16.824218-17.324219 1.355469-.46875 2.191406-1.828125 1.992188-3.246093-.195313-1.417969-1.363282-2.5-2.792969-2.585938zm-19.167969 13.589844c-1.847656-3.769532-4.679687-7.894532-8.894531-10.558594 3.710937-2.085938 7.394531-5.261719 9.742187-9.835938 2.113282 3.75 5.308594 7.910157 9.878907 10.449219-3.695313 2.203125-7.972657 5.480469-10.726563 9.945313zm0 0" fill="#3a312a"/><path d="m27.445312 3.128906c-1.375 16.355469-18.425781 18.941406-18.425781 18.941406 14.636719.6875 18.285157 19.886719 18.285157 19.886719.3125-13.6875 18.84375-20.089843 18.84375-20.089843-13.878907-.828126-18.703126-18.738282-18.703126-18.738282zm0 0" fill="#d7e057"/><path d="m46.332031 18.875c-11.535156-.691406-15.945312-16.371094-15.988281-16.53125-.382812-1.402344-1.707031-2.328125-3.164062-2.203125-1.453126.128906-2.597657 1.285156-2.722657 2.734375-1.15625 13.742188-15.292969 16.136719-15.882812 16.230469-1.527344.230469-2.628907 1.578125-2.546875 3.117187.078125 1.542969 1.3125 2.769532 2.855468 2.84375 12.070313.566406 15.449219 17.289063 15.476563 17.453125.269531 1.425781 1.519531 2.4375 2.945313 2.4375.082031 0 .167968 0 .25-.007812 1.53125-.128907 2.71875-1.390625 2.753906-2.921875.261718-11.417969 16.660156-17.269532 16.824218-17.324219 1.351563-.46875 2.1875-1.828125 1.992188-3.246094-.199219-1.414062-1.367188-2.496093-2.792969-2.582031zm-19.171875 13.589844c-1.847656-3.769532-4.679687-7.894532-8.894531-10.5625 3.714844-2.082032 7.394531-5.257813 9.742187-9.832032 2.113282 3.75 5.308594 7.910157 9.882813 10.449219-3.699219 2.199219-7.976563 5.480469-10.730469 9.945313zm0 0" fill="#3a312a"/><path d="m172.941406 148.085938c-12.964844-24.230469-43.121094-33.359376-67.351562-20.394532-24.230469 12.96875-33.359375 43.125-20.390625 67.355469 12.96875 24.226563 43.125 33.359375 67.351562 20.390625 24.230469-12.96875 33.359375-43.125 20.390625-67.351562zm0 0" fill="#87796f"/><path d="m129.058594 118.808594c-29.089844 0-52.757813 23.664062-52.757813 52.757812 0 29.089844 23.664063 52.757813 52.757813 52.757813s52.757812-23.667969 52.757812-52.757813c0-29.09375-23.667968-52.757812-52.757812-52.757812zm0 99.515625c-25.78125 0-46.757813-20.976563-46.757813-46.757813s20.976563-46.757812 46.757813-46.757812 46.757812 20.976562 46.757812 46.757812-20.976562 46.757813-46.757812 46.757813zm0 0" fill="#3a312a"/><path d="m208.992188 68.664062c-26.742188-6.316406-53.542969 10.246094-59.859376 36.988282-6.316406 26.746094 10.246094 53.542968 36.992188 59.859375 26.742188 6.316406 53.542969-10.246094 59.855469-36.988281 6.316406-26.746094-10.246094-53.546876-36.988281-59.859376zm0 0" fill="#87796f"/><path d="m197.554688 64.308594c-29.089844 0-52.757813 23.667968-52.757813 52.757812 0 29.09375 23.667969 52.757813 52.757813 52.757813 29.089843 0 52.757812-23.664063 52.757812-52.757813 0-29.089844-23.664062-52.757812-52.757812-52.757812zm0 99.515625c-25.78125 0-46.757813-20.972657-46.757813-46.757813 0-25.78125 20.976563-46.757812 46.757813-46.757812s46.757812 20.976562 46.757812 46.757812c0 25.785156-20.976562 46.757813-46.757812 46.757813zm0 0" fill="#3a312a"/><path d="m344.269531 123.167969c-26.742187-6.3125-53.542969 10.246093-59.859375 36.992187-6.3125 26.742188 10.246094 53.542969 36.992188 59.859375 26.742187 6.3125 53.542968-10.246093 59.859375-36.992187 6.3125-26.742188-10.246094-53.542969-36.992188-59.859375zm0 0" fill="#87796f"/><path d="m332.828125 118.808594c-29.089844 0-52.757813 23.664062-52.757813 52.757812 0 29.089844 23.667969 52.757813 52.757813 52.757813 29.09375 0 52.757813-23.667969 52.757813-52.757813 0-29.09375-23.664063-52.757812-52.757813-52.757812zm0 99.515625c-25.78125 0-46.757813-20.976563-46.757813-46.757813s20.976563-46.757812 46.757813-46.757812c25.785156 0 46.757813 20.976562 46.757813 46.757812s-20.972657 46.757813-46.757813 46.757813zm0 0" fill="#3a312a"/><path d="m145.542969 241.941406c-1.707031-27.429687-25.324219-48.28125-52.753907-46.574218-27.425781 1.707031-48.277343 25.324218-46.570312 52.753906 1.703125 27.429687 25.324219 48.28125 52.75 46.574218 27.429688-1.707031 48.28125-25.324218 46.574219-52.753906zm0 0" fill="#87796f"/><path d="m95.886719 192.261719c-29.089844 0-52.757813 23.664062-52.757813 52.757812 0 29.089844 23.664063 52.757813 52.757813 52.757813s52.757812-23.667969 52.757812-52.757813c0-29.09375-23.667969-52.757812-52.757812-52.757812zm0 99.515625c-25.78125 0-46.757813-20.976563-46.757813-46.757813 0-25.785156 20.976563-46.757812 46.757813-46.757812s46.757812 20.972656 46.757812 46.757812c0 25.78125-20.976562 46.757813-46.757812 46.757813zm0 0" fill="#3a312a"/><path d="m161.203125 179.050781c-27.273437-3.355469-52.105469 16.03125-55.464844 43.304688-3.359375 27.277343 16.03125 52.109375 43.304688 55.464843 27.273437 3.359376 52.105469-16.027343 55.464843-43.300781 3.359376-27.277343-16.03125-52.109375-43.304687-55.46875zm0 0" fill="#87796f"/><path d="m155.121094 175.675781c-29.089844 0-52.757813 23.664063-52.757813 52.757813 0 29.089844 23.667969 52.757812 52.757813 52.757812 29.09375 0 52.757812-23.667968 52.757812-52.757812 0-29.09375-23.667968-52.757813-52.757812-52.757813zm0 99.515625c-25.78125 0-46.757813-20.976562-46.757813-46.757812 0-25.785156 20.976563-46.757813 46.757813-46.757813 25.785156 0 46.757812 20.972657 46.757812 46.757813 0 25.78125-20.972656 46.757812-46.757812 46.757812zm0 0" fill="#3a312a"/><path d="m221.265625 122.957031c-24.226563-12.96875-54.382813-3.839843-67.351563 20.390625-12.96875 24.230469-3.839843 54.382813 20.390626 67.351563 24.230468 12.96875 54.386718 3.839843 67.351562-20.390625 12.96875-24.230469 3.839844-54.382813-20.390625-67.351563zm0 0" fill="#87796f"/><path d="m197.773438 114.066406c-29.089844 0-52.757813 23.667969-52.757813 52.757813 0 29.09375 23.664063 52.761719 52.757813 52.761719 29.089843 0 52.757812-23.667969 52.757812-52.761719 0-29.089844-23.667969-52.757813-52.757812-52.757813zm0 99.519532c-25.78125 0-46.757813-20.976563-46.757813-46.757813s20.976563-46.757813 46.757813-46.757813 46.757812 20.976563 46.757812 46.757813-20.976562 46.757813-46.757812 46.757813zm0 0" fill="#3a312a"/><path d="m316.484375 102.644531c-7.964844-26.300781-35.742187-41.167969-62.046875-33.203125-26.300781 7.964844-41.164062 35.742188-33.203125 62.042969 7.964844 26.300781 35.742187 41.167969 62.042969 33.203125 26.304687-7.964844 41.167968-35.742188 33.207031-62.042969zm0 0" fill="#87796f"/><path d="m268.855469 64.308594c-29.089844 0-52.757813 23.667968-52.757813 52.757812 0 29.09375 23.667969 52.757813 52.757813 52.757813 29.089843 0 52.757812-23.664063 52.757812-52.757813 0-29.089844-23.667969-52.757812-52.757812-52.757812zm0 99.515625c-25.785157 0-46.757813-20.972657-46.757813-46.757813 0-25.78125 20.976563-46.757812 46.757813-46.757812s46.757812 20.976562 46.757812 46.757812c0 25.785156-20.976562 46.757813-46.757812 46.757813zm0 0" fill="#3a312a"/><path d="m295.011719 124.476562c-23.375-14.445312-54.039063-7.207031-68.484375 16.171876-14.449219 23.378906-7.207032 54.039062 16.167968 68.488281 23.378907 14.445312 54.042969 7.203125 68.488282-16.171875 14.445312-23.378906 7.207031-54.042969-16.171875-68.488282zm0 0" fill="#87796f"/><path d="m268.855469 114.066406c-29.089844 0-52.757813 23.667969-52.757813 52.757813 0 29.09375 23.667969 52.761719 52.757813 52.761719 29.089843 0 52.757812-23.667969 52.757812-52.761719 0-29.089844-23.667969-52.757813-52.757812-52.757813zm0 99.519532c-25.785157 0-46.757813-20.976563-46.757813-46.757813s20.976563-46.757813 46.757813-46.757813 46.757812 20.976563 46.757812 46.757813-20.976562 46.757813-46.757812 46.757813zm0 0" fill="#3a312a"/><path d="m362.296875 226.445312c-6.316406-26.742187-33.117187-43.304687-59.859375-36.988281-26.746094 6.3125-43.304688 33.113281-36.992188 59.859375 6.316407 26.742188 33.117188 43.304688 59.859376 36.988282 26.746093-6.316407 43.304687-33.113282 36.992187-59.859376zm0 0" fill="#87796f"/><path d="m313.875 185.152344c-29.09375 0-52.757812 23.664062-52.757812 52.757812 0 29.089844 23.664062 52.757813 52.757812 52.757813 29.089844 0 52.757812-23.667969 52.757812-52.757813-.003906-29.09375-23.667968-52.757812-52.757812-52.757812zm0 99.515625c-25.78125 0-46.757812-20.976563-46.757812-46.757813s20.976562-46.757812 46.757812-46.757812 46.757812 20.976562 46.757812 46.757812-20.976562 46.757813-46.757812 46.757813zm0 0" fill="#3a312a"/><path d="m403.550781 202.726562c-19.433593-19.429687-50.9375-19.429687-70.367187 0-19.433594 19.433594-19.433594 50.9375 0 70.367188 19.429687 19.433594 50.933594 19.433594 70.367187 0 19.429688-19.429688 19.429688-50.933594 0-70.367188zm0 0" fill="#87796f"/><path d="m368.371094 185.152344c-29.089844 0-52.757813 23.664062-52.757813 52.757812 0 29.089844 23.664063 52.757813 52.757813 52.757813 29.089844 0 52.757812-23.667969 52.757812-52.757813 0-29.09375-23.667968-52.757812-52.757812-52.757812zm0 99.515625c-25.78125 0-46.757813-20.976563-46.757813-46.757813s20.976563-46.757812 46.757813-46.757812 46.757812 20.976562 46.757812 46.757812-20.976562 46.757813-46.757812 46.757813zm0 0" fill="#3a312a"/><path d="m282.183594 219.035156c-5.195313-26.984375-31.285156-44.648437-58.269532-39.453125-26.988281 5.199219-44.652343 31.285157-39.453124 58.273438 5.195312 26.984375 31.285156 44.648437 58.269531 39.453125 26.988281-5.199219 44.652343-31.285156 39.453125-58.273438zm0 0" fill="#87796f"/><path d="m233.3125 175.675781c-29.089844 0-52.757812 23.664063-52.757812 52.757813 0 29.089844 23.664062 52.757812 52.757812 52.757812s52.757812-23.667968 52.757812-52.757812c0-29.09375-23.664062-52.757813-52.757812-52.757813zm0 99.515625c-25.78125 0-46.757812-20.976562-46.757812-46.757812 0-25.785156 20.976562-46.757813 46.757812-46.757813s46.757812 20.972657 46.757812 46.757813c0 25.78125-20.976562 46.757812-46.757812 46.757812zm0 0" fill="#3a312a"/><path d="m460.871094 412.191406-21.574219-138.148437c-2.425781-15.539063-15.8125-27-31.542969-27h-351.25c-15.730468 0-29.117187 11.460937-31.542968 27l-7.390626 47.320312-4.574218 29.304688-9.609375 61.523437c-3.023438 19.359375 11.949219 36.851563 31.542969 36.851563h394.402343c19.59375 0 34.566407-17.492188 31.539063-36.851563zm0 0" fill="#f16c7a"/><path d="m463.835938 411.726562-21.574219-138.144531c-2.671875-17.117187-17.183594-29.539062-34.507813-29.539062h-351.25c-17.320312 0-31.835937 12.421875-34.507812 29.539062l-7.390625 47.316407c-.253907 1.636718.863281 3.171874 2.5 3.425781 1.636719.257812 3.171875-.863281 3.425781-2.5l7.390625-47.316407c2.214844-14.175781 14.234375-24.464843 28.582031-24.464843h351.25c14.347656 0 26.367188 10.289062 28.582032 24.464843l21.574218 138.144532c1.304688 8.363281-1.101562 16.84375-6.605468 23.273437-5.503907 6.429688-13.511719 10.117188-21.972657 10.117188h-394.402343c-8.464844 0-16.472657-3.6875-21.976563-10.117188-5.503906-6.425781-7.910156-14.910156-6.605469-23.273437l9.609375-61.523438c.253907-1.636718-.863281-3.167968-2.503906-3.425781-1.632813-.253906-3.171875.863281-3.425781 2.503906l-9.605469 61.519531c-1.578125 10.097657 1.328125 20.339844 7.972656 28.105469 6.644531 7.761719 16.316407 12.210938 26.535157 12.210938h394.398437c10.21875 0 19.890625-4.449219 26.535156-12.210938 6.644531-7.769531 9.550781-18.011719 7.972657-28.105469zm0 0" fill="#3a312a"/><path d="m339.058594 348.664062c9.605468-5.898437 16.035156-16.46875 16.035156-28.566406 0-18.523437-15.011719-33.539062-33.535156-33.539062-18.523438 0-33.535156 15.015625-33.535156 33.539062 0 1.261719.082031 2.5.21875 3.722656h-112.414063c.242187-1.625.40625-3.273437.40625-4.964843 0-18.523438-15.015625-33.539063-33.535156-33.539063-18.523438 0-33.535157 15.015625-33.535157 33.539063 0 12.097656 6.425782 22.667969 16.035157 28.566406-9.605469 5.898437-16.035157 16.46875-16.035157 28.566406 0 18.523438 15.011719 33.539063 33.535157 33.539063 18.519531 0 33.535156-15.015625 33.535156-33.539063 0-1.691406-.164063-3.34375-.40625-4.964843h112.789063c-.375 2.011718-.597657 4.085937-.597657 6.207031 0 18.523437 15.015625 33.539062 33.535157 33.539062 18.523437 0 33.539062-15.015625 33.539062-33.539062 0-12.097657-6.429688-22.667969-16.035156-28.566407zm0 0" fill="#fce8cb"/><path d="m344.285156 348.664062c8.71875-6.898437 13.808594-17.289062 13.808594-28.566406 0-20.148437-16.390625-36.539062-36.535156-36.539062-20.144532 0-36.535156 16.390625-36.535156 36.539062 0 .238282 0 .480469.007812.722656h-27.996094c-1.65625 0-3 1.34375-3 3 0 1.660157 1.34375 3 3 3h31.207032c.851562 0 1.664062-.363281 2.234374-.996093.566407-.632813.839844-1.480469.746094-2.332031-.132812-1.21875-.199218-2.332032-.199218-3.394532 0-16.839844 13.695312-30.539062 30.535156-30.539062s30.535156 13.699218 30.535156 30.539062c0 10.671875-5.460938 20.394532-14.605469 26.007813-.886719.546875-1.429687 1.515625-1.429687 2.554687 0 1.042969.542968 2.011719 1.429687 2.558594 9.144531 5.617188 14.605469 15.339844 14.605469 26.011719 0 16.835937-13.695312 30.535156-30.535156 30.535156s-30.535156-13.699219-30.535156-30.535156c0-1.824219.183593-3.726563.546874-5.660157.164063-.875-.070312-1.78125-.640624-2.464843-.570313-.6875-1.417969-1.085938-2.308594-1.085938h-112.792969c-.875 0-1.703125.378907-2.273437 1.042969-.570313.660156-.824219 1.539062-.695313 2.402344.257813 1.71875.378906 3.15625.378906 4.523437 0 16.839844-13.699219 30.539063-30.539062 30.539063-16.835938 0-30.535157-13.699219-30.535157-30.539063 0-10.671875 5.460938-20.394531 14.605469-26.007812.890625-.546875 1.429688-1.515625 1.429688-2.554688 0-1.046875-.539063-2.011719-1.429688-2.558593-9.144531-5.613282-14.605469-15.339844-14.605469-26.011719 0-16.835938 13.699219-30.535157 30.535157-30.535157 16.839843 0 30.539062 13.699219 30.539062 30.535157 0 1.367187-.121093 2.804687-.378906 4.527343-.125.863282.128906 1.738282.695313 2.402344.570312.660156 1.398437 1.039063 2.273437 1.039063h52.726563c1.65625 0 3-1.339844 3-3 0-1.65625-1.34375-3-3-3h-49.382813c.042969-.671875.0625-1.320313.0625-1.964844 0-20.148437-16.390625-36.539063-36.535156-36.539063-20.148438 0-36.535157 16.390626-36.535157 36.539063 0 11.277344 5.085938 21.667969 13.804688 28.566406-8.714844 6.898438-13.804688 17.289063-13.804688 28.566407 0 20.148437 16.386719 36.539062 36.535157 36.539062 20.144531 0 36.535156-16.390625 36.535156-36.539062 0-.640626-.019531-1.292969-.0625-1.964844h106c-.101563 1.082031-.152344 2.15625-.152344 3.207031 0 20.148437 16.390625 36.539063 36.535157 36.539063 20.148437 0 36.539062-16.390626 36.539062-36.539063 0-11.28125-5.089844-21.671875-13.808594-28.570313zm0 0" fill="#3a312a"/><path d="m457.910156 412.644531-21.582031-138.140625c-2.199219-14.179687-14.21875-24.460937-28.578125-24.460937h-30c14.359375 0 26.378906 10.28125 28.578125 24.460937l21.582031 138.140625c1.296875 8.378907-1.101562 16.859375-6.601562 23.28125-5.5 6.4375-13.519532 10.117188-21.980469 10.117188h30c8.460937 0 16.480469-3.679688 21.980469-10.117188 5.5-6.421875 7.898437-14.902343 6.601562-23.28125zm0 0" fill="#d34e5c"/></svg>