<?xml version="1.0" encoding="UTF-8"?>
<svg width="20px" height="12px" viewBox="0 0 20 12" version="1.1" xmlns="http://www.w3.org/2000/svg" xmlns:xlink="http://www.w3.org/1999/xlink">
    <defs>
        <polygon id="path-1" points="0 10.0771598 15.9356213 10.0771598 15.9356213 0 0 0"></polygon>
    </defs>
    <g id="mastercardNegative" stroke="none" stroke-width="1" fill="none" fill-rule="evenodd">
        <g fill="#000000">
            <path d="M19.2420833,12 L0.757916667,12 C0.339166667,12 0,11.6744 0,11.2724 L0,0.7276 C0,0.3256 0.339166667,0 0.757916667,0 L19.2425,0 C19.6608333,0 20,0.3256 20,0.7276 L20,11.2724 C20,11.6744 19.6608333,12 19.2420833,12 L19.2420833,12 Z" id="Shape"></path>
        </g>
        <g id="Group" transform="translate(2.000000, 1.000000)">
            <path d="M12.2168047,8.78488994 C12.204213,8.62848757 12.3208521,8.49149349 12.4771598,8.47909112 C12.4850178,8.4784284 12.4929704,8.47814438 12.5008284,8.47814438 C12.6692544,8.50399053 12.7848521,8.66162367 12.7589112,8.83014438 C12.7381775,8.96458225 12.631858,9.06976568 12.4970414,9.08879527 C12.3401657,9.08926864 12.2126391,8.96240473 12.2121657,8.80562367 C12.2121657,8.7980497 12.2124497,8.79047574 12.2130178,8.78290178 L12.2168047,8.78488994 Z M12.9505325,8.78488994 L12.9505325,7.96595503 L12.7687574,7.96595503 L12.7687574,8.43932781 C12.6973728,8.3511858 12.5885917,8.3020497 12.4751716,8.30668876 C12.2125444,8.30668876 11.9995266,8.51970651 11.9995266,8.78252308 C11.9995266,9.04524497 12.2125444,9.25826272 12.4751716,9.25826272 C12.5885917,9.26290178 12.6973728,9.21376568 12.7687574,9.12571834 L12.7687574,9.23554083 L12.9505325,9.23554083 L12.9505325,8.78488994 Z M10.3876923,8.78488994 C10.3751953,8.62848757 10.491645,8.49149349 10.648142,8.47909112 C10.656,8.4784284 10.663858,8.47814438 10.671716,8.47814438 C10.8413728,8.4944284 10.9656805,8.6451503 10.9493018,8.81490178 C10.9351953,8.96193136 10.8187456,9.07838107 10.671716,9.09258225 C10.5148402,9.09305562 10.3873136,8.96628639 10.3867456,8.80941065 C10.3867456,8.80155266 10.3870296,8.79369467 10.3876923,8.78583669 L10.3876923,8.78488994 Z M11.1214201,8.78488994 L11.1214201,8.33139882 L10.939645,8.33139882 L10.939645,8.44112663 C10.8682604,8.35307929 10.7593846,8.3039432 10.6461538,8.30867692 C10.383432,8.30867692 10.1704142,8.52169467 10.1704142,8.78432189 C10.1704142,9.04713846 10.383432,9.26015621 10.6461538,9.26015621 C10.7593846,9.26479527 10.8682604,9.21565917 10.939645,9.12751716 L10.939645,9.23733964 L11.1214201,9.23733964 L11.1214201,8.78488994 Z M13.2639053,9.17012071 L13.2639053,9.19582738 L13.287372,9.19582738 C13.291532,9.19700071 13.2959053,9.19700071 13.300172,9.19582738 C13.3016653,9.19273404 13.3016653,9.18921404 13.300172,9.18622738 C13.3016653,9.18313404 13.3016653,9.17961404 13.300172,9.17662738 C13.2959053,9.17534738 13.291532,9.17534738 13.287372,9.17662738 L13.2639053,9.17012071 Z M13.2897704,9.15402865 C13.2996904,9.15370865 13.3095037,9.15669532 13.3175037,9.16256199 C13.3242237,9.16810865 13.3277437,9.17642865 13.3271037,9.18496199 C13.3274237,9.19221532 13.3246504,9.19914865 13.3196371,9.20416199 C13.3134504,9.20981532 13.3055571,9.21322865 13.2972371,9.21386865 L13.3281704,9.24906865 L13.3036371,9.24906865 L13.2748371,9.21386865 L13.2652371,9.21386865 L13.2652371,9.24906865 L13.2449704,9.24906865 L13.2449704,9.15509532 L13.2897704,9.15402865 Z M13.2790533,9.26678343 C13.288426,9.26678343 13.2978935,9.26479527 13.3065089,9.26100828 C13.3146509,9.25741065 13.3220355,9.25229822 13.328284,9.24586036 C13.3528047,9.21916213 13.3528047,9.1779787 13.328284,9.1511858 C13.3220355,9.1448426 13.3146509,9.13973018 13.3065089,9.13613254 C13.2978935,9.13225089 13.288426,9.1303574 13.2790533,9.1303574 C13.2695858,9.1303574 13.260213,9.13234556 13.2515976,9.13613254 C13.2430769,9.13954083 13.2354083,9.14474793 13.2288757,9.1511858 C13.204355,9.1779787 13.204355,9.21916213 13.2288757,9.24586036 C13.2354083,9.25229822 13.2431716,9.25750533 13.2515976,9.26100828 C13.2604024,9.26413254 13.2697751,9.26545799 13.2790533,9.26479527 L13.2790533,9.26678343 Z M13.2790533,9.10668876 C13.2913609,9.10659408 13.303574,9.10886627 13.3150296,9.11341065 C13.3259172,9.11786036 13.335858,9.12420355 13.3443787,9.13234556 C13.3527101,9.14048757 13.359432,9.1500497 13.3642604,9.16074793 C13.3740118,9.18309112 13.3740118,9.20846391 13.3642604,9.2308071 C13.359432,9.24131598 13.3527101,9.25106746 13.3443787,9.25920947 C13.335858,9.2672568 13.3259172,9.27369467 13.3150296,9.27814438 C13.3036686,9.28316213 13.2914556,9.28571834 13.2790533,9.28571834 C13.2424142,9.28543432 13.2091834,9.26403787 13.1938462,9.2308071 C13.184284,9.20846391 13.184284,9.18309112 13.1938462,9.16074793 C13.1986746,9.1500497 13.2053964,9.14048757 13.2137278,9.13234556 C13.2222485,9.12420355 13.232284,9.11786036 13.2430769,9.11341065 C13.2543432,9.10782485 13.2665562,9.10470059 13.2790533,9.10384852 L13.2790533,9.10668876 Z M11.8191716,8.30952899 C11.719574,8.30754083 11.6261302,8.35781302 11.5730178,8.44216805 L11.5730178,8.33139882 L11.3931361,8.33139882 L11.3931361,9.23733964 L11.5749112,9.23733964 L11.5749112,8.72619172 C11.5749112,8.57660592 11.6467692,8.4799432 11.7756213,8.4799432 C11.8177515,8.47937515 11.8595976,8.48713846 11.8986982,8.50275976 L11.9592899,8.33234556 C11.9143195,8.31625089 11.8669822,8.30791953 11.8191716,8.30773018 L11.8191716,8.30952899 Z M4.82366864,8.78290178 C4.81107692,8.62659408 4.92771598,8.48969467 5.08402367,8.47710296 C5.09188166,8.47644024 5.09983432,8.47615621 5.10769231,8.47615621 C5.27734911,8.49253491 5.4016568,8.64335148 5.38537278,8.81300828 C5.3711716,8.96013254 5.25472189,9.07648757 5.10769231,9.09059408 C4.95081657,9.09116213 4.82328994,8.9643929 4.82272189,8.80751716 C4.82272189,8.79965917 4.82300592,8.79170651 4.82366864,8.78384852 L4.82366864,8.78290178 Z M5.55739645,8.78290178 L5.55739645,8.33139882 L5.3756213,8.33139882 L5.3756213,8.44112663 C5.30423669,8.35307929 5.19536095,8.3039432 5.08213018,8.30867692 C4.81940828,8.30867692 4.60639053,8.52169467 4.60639053,8.78432189 C4.60639053,9.04713846 4.81940828,9.26015621 5.08213018,9.26015621 C5.19536095,9.26479527 5.30423669,9.21565917 5.3756213,9.12751716 L5.3756213,9.23733964 L5.55739645,9.23733964 L5.55739645,8.78290178 Z M8.0104142,8.47719763 C8.13794083,8.47293728 8.24473373,8.57300828 8.24889941,8.70044024 C8.24899408,8.7024284 8.24899408,8.70432189 8.24899408,8.70631006 L7.76331361,8.70631006 C7.7704142,8.57461775 7.88146746,8.4728426 8.01325444,8.47719763 L8.0104142,8.47719763 Z M8.0104142,8.30867692 C7.74532544,8.30867692 7.56260355,8.49802604 7.56260355,8.7820497 C7.54726627,9.02773018 7.73405917,9.23951716 7.97992899,9.25485444 C7.99450888,9.25570651 8.00908876,9.25599053 8.02366864,9.25542249 C8.15876923,9.26006154 8.29084024,9.21490178 8.3947929,9.12855858 L8.30011834,8.99412071 C8.22532544,9.05395503 8.13273373,9.08728047 8.03692308,9.08879527 C7.89945562,9.09381302 7.7808284,8.99317396 7.76331361,8.8568426 L8.44023669,8.8568426 L8.44023669,8.78110296 C8.44023669,8.49707929 8.26792899,8.30773018 8.01325444,8.30773018 L8.0104142,8.30867692 Z M9.28473373,8.7820497 C9.27233136,9.03113846 9.46433136,9.24302012 9.71351479,9.25542249 C9.7283787,9.25617988 9.7432426,9.25617988 9.75810651,9.25542249 C9.87635503,9.26138698 9.99252071,9.22285444 10.083787,9.14749349 L9.98911243,9.00548166 C9.92104142,9.05726864 9.83801183,9.08586036 9.75242604,9.0868071 C9.58276923,9.07052308 9.45846154,8.91980118 9.47474556,8.7500497 C9.48894675,8.60302012 9.60530178,8.48666509 9.75242604,8.47236923 C9.83801183,8.47341065 9.92104142,8.50200237 9.98911243,8.55388402 L10.083787,8.41187219 C9.99252071,8.33641657 9.87635503,8.29788402 9.75810651,8.3039432 C9.50892308,8.29154083 9.29704142,8.48344615 9.28473373,8.73262959 C9.28397633,8.74749349 9.28397633,8.76245207 9.28473373,8.77731598 L9.28473373,8.7820497 Z M6.5391716,8.40335148 C6.42773964,8.33717396 6.2995503,8.30422722 6.16994083,8.30867692 C5.9408284,8.30867692 5.80071006,8.41651124 5.80071006,8.59270059 C5.80071006,8.74029822 5.90295858,8.82938698 6.10556213,8.85778935 L6.20023669,8.87094911 C6.30816568,8.88609704 6.36686391,8.92406154 6.36686391,8.9751858 C6.36686391,9.04524497 6.28733728,9.09059408 6.15289941,9.09059408 C6.04468639,9.09447574 5.93846154,9.06105562 5.85183432,8.99591953 L5.75715976,9.13793136 C5.87256805,9.21670059 6.00946746,9.25769467 6.14911243,9.25542249 C6.4104142,9.25542249 6.55526627,9.13414438 6.55526627,8.96183669 C6.55526627,8.78962367 6.44449704,8.72420355 6.24852071,8.69589586 L6.15384615,8.68264142 C6.06863905,8.67128047 5.99289941,8.6447716 5.99289941,8.58796686 C5.99289941,8.53106746 6.06485207,8.47615621 6.17278107,8.47615621 C6.27247337,8.47738698 6.37036686,8.50408521 6.45680473,8.55388402 L6.5391716,8.40335148 Z M9.08118343,8.30867692 C8.9815858,8.30659408 8.88814201,8.35686627 8.83502959,8.44112663 L8.83502959,8.33139882 L8.65514793,8.33139882 L8.65514793,9.23733964 L8.83692308,9.23733964 L8.83692308,8.72619172 C8.83692308,8.57660592 8.90887574,8.4799432 9.03763314,8.4799432 C9.07976331,8.47937515 9.12160947,8.48713846 9.16071006,8.50275976 L9.22130178,8.33139882 C9.17633136,8.31530414 9.12899408,8.30697278 9.08118343,8.30668876 L9.08118343,8.30867692 Z M7.39976331,8.33139882 L7.07029586,8.33139882 L7.07029586,8.0568426 L6.88568047,8.0568426 L6.88568047,8.33139882 L6.69633136,8.33139882 L6.69633136,8.49603787 L6.88568047,8.49603787 L6.88568047,8.92491361 C6.88568047,9.13509112 6.95952663,9.26015621 7.19242604,9.26015621 C7.27943195,9.26034556 7.36473373,9.23610888 7.43857988,9.19000237 L7.38177515,9.0291503 C7.32894675,9.06058225 7.26901775,9.07819172 7.20757396,9.08017988 C7.11289941,9.08017988 7.06934911,9.01958817 7.06934911,8.92879527 L7.06934911,8.49423905 L7.39881657,8.49423905 L7.39976331,8.33139882 Z M4.44970414,9.23554083 L4.44970414,8.66749349 C4.46523077,8.48562367 4.33031953,8.32562367 4.1484497,8.31019172 C4.1328284,8.30896095 4.11701775,8.30867692 4.10130178,8.30952899 C3.97386982,8.30148166 3.85211834,8.36302012 3.78319527,8.47057041 C3.72033136,8.36623905 3.60568047,8.30460592 3.48402367,8.30952899 C3.37628402,8.3031858 3.27289941,8.35336331 3.21136095,8.44216805 L3.21136095,8.33139882 L3.02485207,8.33139882 L3.02485207,9.23733964 L3.20852071,9.23733964 L3.20852071,8.71662959 C3.19573964,8.5971503 3.28236686,8.48988402 3.40194083,8.47710296 C3.41377515,8.47577751 3.42579882,8.47549349 3.43763314,8.47615621 C3.56828402,8.47615621 3.64213018,8.56145799 3.64213018,8.71483077 L3.64213018,9.23648757 L3.82579882,9.23648757 L3.82579882,8.71662959 C3.8135858,8.59658225 3.90115976,8.4892213 4.02130178,8.47700828 C4.03247337,8.47587219 4.04364497,8.47558817 4.05491124,8.47615621 C4.18934911,8.47615621 4.26130178,8.56145799 4.26130178,8.71483077 L4.26130178,9.23648757 L4.44970414,9.23554083 Z" id="Fill-2" fill="#FFFFFF"></path>
            <mask id="mask-2" fill="white">
                <use xlink:href="#path-1"></use>
            </mask>
            <g id="Clip-5"></g>
            <polygon id="Fill-4" fill="#FF5F00" mask="url(#mask-2)" points="6.47668639 6.79289941 9.45893491 6.79289941 9.45893491 1.43337278 6.47668639 1.43337278"></polygon>
            <path d="M6.66605444,4.11361893 C6.66520237,3.06793846 7.14529704,2.08000947 7.96782959,1.43432899 C6.48778225,0.271252071 4.34510769,0.528104142 3.18203077,2.0080568 C2.01895385,3.48810414 2.27580592,5.6307787 3.75575858,6.79385562 C4.99173491,7.76521657 6.73185325,7.76521657 7.96782959,6.79385562 C7.14501302,6.14808047 6.66491834,5.15958343 6.66605444,4.11361893" id="Fill-6" fill="#EB001B" mask="url(#mask-2)"></path>
            <path d="M13.4826225,4.11361893 C13.4825278,5.99593846 11.9565633,7.52190296 10.0742438,7.52190296 C9.31031479,7.52180828 8.56844497,7.26514556 7.96782959,6.79290888 C9.44778225,5.62973728 9.70472899,3.4871574 8.54165207,2.00711006 C8.37388876,1.79371361 8.18122604,1.60105089 7.96782959,1.43338225 C9.4475929,0.269926627 11.5903621,0.526494675 12.7537231,2.00625799 C13.2258651,2.6067787 13.4826225,3.34864852 13.4826225,4.11267219 L13.4826225,4.11361893 Z" id="Fill-8" fill="#F79E1B" mask="url(#mask-2)"></path>
            <path d="M13.9916544,6.59326391 L13.9916544,6.09326391 L13.8849855,6.09326391 L13.7601919,6.45040676 L13.6353982,6.09326391 L13.5281351,6.09326391 L13.5281351,6.59326391 L13.6024171,6.59326391 L13.6024171,6.21433533 L13.7182969,6.53969248 L13.7988185,6.53969248 L13.9144012,6.21433533 L13.9144012,6.59326391 L13.9916544,6.59326391 Z M13.3052893,6.59326391 L13.3052893,6.17897819 L13.4449393,6.17897819 L13.4449393,6.09326391 L13.0916544,6.09326391 L13.0916544,6.17897819 L13.2310074,6.17897819 L13.2310074,6.59326391 L13.3052893,6.59326391 Z" id="Fill-7" fill="#F79E1B" mask="url(#mask-2)"></path>
        </g>
    </g>
</svg>
