<?xml version="1.0" encoding="UTF-8"?>
<svg width="20px" height="12px" viewBox="0 0 20 12" version="1.1" xmlns="http://www.w3.org/2000/svg" xmlns:xlink="http://www.w3.org/1999/xlink">
    <defs>
        <linearGradient x1="10.3135879%" y1="97.1329738%" x2="93.0635246%" y2="-1.14256039%" id="linearGradient-1">
            <stop stop-color="#1A1D59" offset="0%"></stop>
            <stop stop-color="#112D97" offset="100%"></stop>
        </linearGradient>
    </defs>
    <g id="visaPositive" stroke="none" stroke-width="1" fill="none" fill-rule="evenodd">
        <rect id="Rectangle" stroke="#E6E6E6" stroke-width="0.5" fill="#FFFFFF" x="0.25" y="0.25" width="19.5" height="11.5" rx="1"></rect>
        <path d="M9.70559001,5.23897715 C9.69930337,5.77860844 10.1871124,6.07968737 10.554286,6.25894147 C10.9323337,6.44278311 11.0590859,6.56086993 11.0577266,6.72500212 C11.0550081,6.97646759 10.7563079,7.08741823 10.4769773,7.09183587 C9.98984793,7.09931187 9.70694928,6.95998641 9.48164982,6.85498258 L9.30562399,7.67615326 C9.53211282,7.78013763 9.95042902,7.87086909 10.384037,7.87545663 C11.402812,7.87545663 12.0691955,7.37218588 12.0722538,6.59298275 C12.0763317,5.60377198 10.7041458,5.54906125 10.7136607,5.10712769 C10.7165491,4.97272959 10.8448305,4.82983604 11.1250106,4.79330558 C11.2638264,4.77512531 11.6469714,4.76119276 12.0809192,4.96117577 L12.251338,4.16634101 C12.0178829,4.08138646 11.7178235,4 11.3443633,4 C10.385906,4 9.71136692,4.50938748 9.70559001,5.23897715 Z M13.8892617,4.06847337 C13.7032113,4.06847337 13.5462153,4.17670546 13.4767225,4.34338629 L12.0216209,7.81683799 L13.0398862,7.81683799 L13.2419081,7.25698751 L14.4859825,7.25698751 L14.6032198,7.81683799 L15.5,7.81683799 L14.7172288,4.06847337 L13.8892617,4.06847337 Z M14.0316456,5.08113159 L14.3252485,6.48865857 L13.5212386,6.48865857 L14.0316456,5.08113159 Z M8.47238977,4.06847337 L7.67024892,7.81683799 L8.63975023,7.81683799 L9.44172118,4.06847337 L8.47238977,4.06847337 Z M7.03733752,4.06847337 L6.02824739,6.61965848 L5.61995582,4.45076884 C5.57221137,4.20847846 5.38310254,4.06847337 5.17292499,4.06847337 L3.52293773,4.06847337 L3.5,4.17721519 C3.83845892,4.25095574 4.22347294,4.36955229 4.45641832,4.49613457 C4.59931187,4.57361312 4.63992014,4.64106703 4.68681505,4.8254184 L5.46007136,7.81683799 L6.48496304,7.81683799 L8.05611248,4.06847337 L7.03733752,4.06847337 Z" id="Fill-1" fill="url(#linearGradient-1)"></path>
    </g>
</svg>
